<svg xmlns="http://www.w3.org/2000/svg" id="CPX-AP-A-EC-M12" width="50" height="107" viewBox="0 0 50 107">
  <g id="CPX-AP-A_Base" data-name="CPX-AP-A Base">
    <rect id="Base" width="50" height="107" fill="#e5e8eb"/>
    <g id="Festo_Logo" data-name="Festo Logo">
      <path id="F" d="M.091,2.814A.093.093,0,0,1,0,2.72V.094A.093.093,0,0,1,.091,0h2.54a.093.093,0,0,1,.091.094V.469a.092.092,0,0,1-.091.094H.817A.092.092,0,0,0,.726.657v.375a.093.093,0,0,0,.091.094H2.45a.092.092,0,0,1,.091.094V1.6a.092.092,0,0,1-.09.093H.817a.093.093,0,0,0-.091.094V2.72a.093.093,0,0,1-.091.094Z" transform="translate(27.2 1.951)" fill="#0091dc"/>
      <path id="E" d="M0,.094A.093.093,0,0,1,.091,0H2.813A.093.093,0,0,1,2.9.094V.469a.093.093,0,0,1-.091.094h-2A.092.092,0,0,0,.726.657v.375a.092.092,0,0,0,.091.094H2.631a.092.092,0,0,1,.091.094V1.6a.092.092,0,0,1-.091.093H.817a.093.093,0,0,0-.091.094v.375a.093.093,0,0,0,.091.094h2a.092.092,0,0,1,.091.094V2.72a.093.093,0,0,1-.091.094H.091A.093.093,0,0,1,0,2.72Z" transform="translate(30.102999999999998 1.951)" fill="#0091dc"/>
      <path id="S" d="M0,1.126a.553.553,0,0,0,.544.562H2a.185.185,0,0,1,.182.188v.187A.184.184,0,0,1,2,2.252H.816a.093.093,0,0,1-.091-.094.092.092,0,0,0-.09-.094H.09A.092.092,0,0,0,0,2.157v.094a.554.554,0,0,0,.544.563H2.359A.554.554,0,0,0,2.9,2.252V1.688a.553.553,0,0,0-.544-.562H.907A.185.185,0,0,1,.726.938V.751A.184.184,0,0,1,.907.563H2.086a.092.092,0,0,1,.091.094.092.092,0,0,0,.09.094h.545A.092.092,0,0,0,2.9.657V.563A.554.554,0,0,0,2.359,0H.544A.554.554,0,0,0,0,.563Z" transform="translate(33.188 1.951)" fill="#0091dc"/>
      <path id="T" d="M0,.094A.093.093,0,0,1,.092,0H2.812A.093.093,0,0,1,2.9.094V.469a.093.093,0,0,1-.091.094H1.906a.092.092,0,0,0-.09.094V2.72a.093.093,0,0,1-.091.094H1.18a.093.093,0,0,1-.091-.094V.657A.092.092,0,0,0,1,.563H.091A.093.093,0,0,1,0,.469V.094Z" transform="translate(36.272 1.951)" fill="#0091dc"/>
      <path id="O" d="M2.322,2.822H.535a.508.508,0,0,1-.208-.044.533.533,0,0,1-.17-.121.565.565,0,0,1-.115-.179A.587.587,0,0,1,0,2.258V.565A.587.587,0,0,1,.042.345.566.566,0,0,1,.157.165.534.534,0,0,1,.327.044.507.507,0,0,1,.535,0H2.322a.509.509,0,0,1,.209.044A.532.532,0,0,1,2.7.165a.565.565,0,0,1,.115.18.589.589,0,0,1,.042.22V2.258a.588.588,0,0,1-.042.22.565.565,0,0,1-.115.179.532.532,0,0,1-.17.121A.509.509,0,0,1,2.322,2.822ZM.893.565A.173.173,0,0,0,.766.62.192.192,0,0,0,.714.753V2.069A.193.193,0,0,0,.766,2.2a.173.173,0,0,0,.127.055H1.965A.173.173,0,0,0,2.091,2.2a.193.193,0,0,0,.052-.133V.753A.192.192,0,0,0,2.091.62.173.173,0,0,0,1.965.565Z" transform="translate(39.402 1.951)" fill="#0091dc"/>
    </g>
    <line id="Line" x2="49" transform="translate(0.5 29.5)" fill="none" stroke="#d8dce1" stroke-linecap="square" stroke-width="1"/>
  </g>
  <g id="Connectors">
    <g id="XF20">
      <g id="Up">
        <circle id="M8" cx="14.499" cy="19.5" r="4" fill="#0091dc" stroke="#0091dc" stroke-width="2"/>
      </g>
      <title>XF20</title>
    </g>
    <g id="OUT_X2" data-name="OUT X2">
      <g id="Right">
        <circle id="M12" cx="36.0" cy="90.0" r="6" fill="#ffd600" stroke="#ffd600" stroke-width="2"/>
      </g>
      <title>OUT X2</title>
    </g>
    <g id="IN_X1" data-name="IN X1">
      <g id="Left">
        <circle id="M12-2" data-name="M12" cx="14.0" cy="90.0" r="6" fill="#ffd600" stroke="#ffd600" stroke-width="2"/>
      </g>
      <title>IN X1</title>
    </g>
  </g>
  <g id="DIL_Switches" data-name="DIL Switches">
    <rect id="Cover" width="50" height="17" fill="#d8dce1" y="59"/>
    <path id="Switches" d="M24729,24838a5,5,0,0,1,0-10h21a5,5,0,0,1,0,10Z" transform="translate(-24714 -24765)" fill="#b6bec6"/>
  </g>
  <g id="LEDs">
    <rect id="LED_LA X2" data-name="LA X2" width="6" height="2" fill="#b6bec6" x="37" y="22">
      <title>LA X2</title>
    </rect>
    <rect id="LED_LA X1" data-name="LA X1" width="6" height="2" fill="#b6bec6" x="29" y="22">
      <title>LA X1</title>
    </rect>
    <rect id="LED_Err" width="6" height="2" fill="#b6bec6" data-name="Err" x="37" y="18">
      <title>Err</title>
    </rect>
    <rect id="LED_Run" width="6" height="2" fill="#b6bec6" data-name="Run" x="29" y="18">
      <title>Run</title>
    </rect>
    <rect id="LED_MT" width="6" height="2" fill="#b6bec6" data-name="MT" x="37" y="14">
      <title>MT</title>
    </rect>
    <rect id="LED_PL" width="6" height="2" fill="#b6bec6" data-name="PL" x="29" y="14">
      <title>PL</title>
    </rect>
    <rect id="LED_SD" width="6" height="2" fill="#b6bec6" data-name="SD" x="37" y="10">
      <title>SD</title>
    </rect>
    <rect id="LED_MD" width="6" height="2" fill="#b6bec6" data-name="MD" x="29" y="10">
      <title>MD</title>
    </rect>
  </g>
</svg>
