<svg xmlns="http://www.w3.org/2000/svg" width="102.004" height="90.001" viewBox="0 0 102.004 90.001">
  <g id="CPX-AP-L-16NDI-PI">
    <g id="Body">
      <path id="Base" d="M102,90h-5V88H5v2H0V0h5V2H97V0h5V90Z" transform="translate(0.003999999999990678 -0.0010000000000047748)" fill="#d8dce1"/>
    </g>
    <g id="Auxiliary_Interfaces" data-name="Auxiliary Interfaces">
      <g id="Bottom_Right" data-name="Bottom Right">
        <g id="X0" fill="#b6bec6" stroke="#b6bec6" stroke-width="1">
          <rect width="3" height="6" stroke="none" x="67" y="72.002"/>
          <rect x="67.5" y="72.502" width="2" height="5" fill="none"/>
        </g>
        <g id="X1" fill="#b6bec6" stroke="#b6bec6" stroke-width="1">
          <rect width="3" height="6" stroke="none" x="71" y="72.002"/>
          <rect x="71.5" y="72.502" width="2" height="5" fill="none"/>
        </g>
        <g id="X2" fill="#b6bec6" stroke="#b6bec6" stroke-width="1">
          <rect width="3" height="6" stroke="none" x="75" y="72.002"/>
          <rect x="75.5" y="72.502" width="2" height="5" fill="none"/>
        </g>
        <g id="X3" fill="#b6bec6" stroke="#b6bec6" stroke-width="1">
          <rect width="3" height="6" stroke="none" x="79" y="72.002"/>
          <rect x="79.5" y="72.502" width="2" height="5" fill="none"/>
        </g>
        <g id="X4" fill="#b6bec6" stroke="#b6bec6" stroke-width="1">
          <rect width="3" height="6" stroke="none" x="83" y="72.002"/>
          <rect x="83.5" y="72.502" width="2" height="5" fill="none"/>
        </g>
        <g id="X5" fill="#b6bec6" stroke="#b6bec6" stroke-width="1">
          <rect width="3" height="6" stroke="none" x="87" y="72.002"/>
          <rect x="87.5" y="72.502" width="2" height="5" fill="none"/>
        </g>
        <g id="X6" fill="#b6bec6" stroke="#b6bec6" stroke-width="1">
          <rect width="3" height="6" stroke="none" x="91" y="72.002"/>
          <rect x="91.5" y="72.502" width="2" height="5" fill="none"/>
        </g>
        <g id="X7" fill="#b6bec6" stroke="#b6bec6" stroke-width="1">
          <rect width="3" height="6" stroke="none" x="95" y="72.002"/>
          <rect x="95.5" y="72.502" width="2" height="5" fill="none"/>
        </g>
        <title>Bottom Right</title>
      </g>
      <g id="Bottom_Left" data-name="Bottom Left">
        <g id="X0-2" data-name="X0-2" fill="#b6bec6" stroke="#b6bec6" stroke-width="1">
          <rect width="3" height="6" stroke="none" x="5" y="72.002"/>
          <rect x="5.5" y="72.502" width="2" height="5" fill="none"/>
        </g>
        <g id="X1-2" data-name="X1-2" fill="#b6bec6" stroke="#b6bec6" stroke-width="1">
          <rect width="3" height="6" stroke="none" x="9" y="72.002"/>
          <rect x="9.5" y="72.502" width="2" height="5" fill="none"/>
        </g>
        <g id="X2-2" data-name="X2-2" fill="#b6bec6" stroke="#b6bec6" stroke-width="1">
          <rect width="3" height="6" stroke="none" x="13" y="72.002"/>
          <rect x="13.5" y="72.502" width="2" height="5" fill="none"/>
        </g>
        <g id="X3-2" data-name="X3-2" fill="#b6bec6" stroke="#b6bec6" stroke-width="1">
          <rect width="3" height="6" stroke="none" x="17" y="72.002"/>
          <rect x="17.5" y="72.502" width="2" height="5" fill="none"/>
        </g>
        <g id="X4-2" data-name="X4-2" fill="#b6bec6" stroke="#b6bec6" stroke-width="1">
          <rect width="3" height="6" stroke="none" x="21" y="72.002"/>
          <rect x="21.5" y="72.502" width="2" height="5" fill="none"/>
        </g>
        <g id="X5-2" data-name="X5-2" fill="#b6bec6" stroke="#b6bec6" stroke-width="1">
          <rect width="3" height="6" stroke="none" x="25" y="72.002"/>
          <rect x="25.5" y="72.502" width="2" height="5" fill="none"/>
        </g>
        <g id="X6-2" data-name="X6-2" fill="#b6bec6" stroke="#b6bec6" stroke-width="1">
          <rect width="3" height="6" stroke="none" x="29" y="72.002"/>
          <rect x="29.5" y="72.502" width="2" height="5" fill="none"/>
        </g>
        <g id="X7-2" data-name="X7-2" fill="#b6bec6" stroke="#b6bec6" stroke-width="1">
          <rect width="3" height="6" stroke="none" x="33" y="72.002"/>
          <rect x="33.5" y="72.502" width="2" height="5" fill="none"/>
        </g>
        <title>Bottom Left</title>
      </g>
      <g id="Top_Right" data-name="Top Right">
        <g id="X0-3" data-name="X0-3" fill="#b6bec6" stroke="#b6bec6" stroke-width="1">
          <rect width="3" height="6" stroke="none" x="67" y="37.001999999999995"/>
          <rect x="67.5" y="37.501999999999995" width="2" height="5" fill="none"/>
        </g>
        <g id="X1-3" data-name="X1-3" fill="#b6bec6" stroke="#b6bec6" stroke-width="1">
          <rect width="3" height="6" stroke="none" x="71" y="37.001999999999995"/>
          <rect x="71.5" y="37.501999999999995" width="2" height="5" fill="none"/>
        </g>
        <g id="X2-3" data-name="X2-3" fill="#b6bec6" stroke="#b6bec6" stroke-width="1">
          <rect width="3" height="6" stroke="none" x="75" y="37.001999999999995"/>
          <rect x="75.5" y="37.501999999999995" width="2" height="5" fill="none"/>
        </g>
        <g id="X3-3" data-name="X3-3" fill="#b6bec6" stroke="#b6bec6" stroke-width="1">
          <rect width="3" height="6" stroke="none" x="79" y="37.001999999999995"/>
          <rect x="79.5" y="37.501999999999995" width="2" height="5" fill="none"/>
        </g>
        <g id="X4-3" data-name="X4-3" fill="#b6bec6" stroke="#b6bec6" stroke-width="1">
          <rect width="3" height="6" stroke="none" x="83" y="37.001999999999995"/>
          <rect x="83.5" y="37.501999999999995" width="2" height="5" fill="none"/>
        </g>
        <g id="X5-3" data-name="X5-3" fill="#b6bec6" stroke="#b6bec6" stroke-width="1">
          <rect width="3" height="6" stroke="none" x="87" y="37.001999999999995"/>
          <rect x="87.5" y="37.501999999999995" width="2" height="5" fill="none"/>
        </g>
        <g id="X6-3" data-name="X6-3" fill="#b6bec6" stroke="#b6bec6" stroke-width="1">
          <rect width="3" height="6" stroke="none" x="91" y="37.001999999999995"/>
          <rect x="91.5" y="37.501999999999995" width="2" height="5" fill="none"/>
        </g>
        <g id="X7-3" data-name="X7-3" fill="#b6bec6" stroke="#b6bec6" stroke-width="1">
          <rect width="3" height="6" stroke="none" x="95" y="37.001999999999995"/>
          <rect x="95.5" y="37.501999999999995" width="2" height="5" fill="none"/>
        </g>
        <title>Top Right</title>
      </g>
      <g id="Top_Right-2" data-name="Top Right">
        <g id="X0-4" data-name="X0-4" fill="#b6bec6" stroke="#b6bec6" stroke-width="1">
          <rect width="3" height="6" stroke="none" x="66" y="58.001999999999995"/>
          <rect x="66.5" y="58.501999999999995" width="2" height="5" fill="none"/>
        </g>
        <g id="X1-4" data-name="X1-4" fill="#b6bec6" stroke="#b6bec6" stroke-width="1">
          <rect width="3" height="6" stroke="none" x="70" y="58.001999999999995"/>
          <rect x="70.5" y="58.501999999999995" width="2" height="5" fill="none"/>
        </g>
        <g id="X2-4" data-name="X2-4" fill="#b6bec6" stroke="#b6bec6" stroke-width="1">
          <rect width="3" height="6" stroke="none" x="74" y="58.001999999999995"/>
          <rect x="74.5" y="58.501999999999995" width="2" height="5" fill="none"/>
        </g>
        <g id="X3-4" data-name="X3-4" fill="#b6bec6" stroke="#b6bec6" stroke-width="1">
          <rect width="3" height="6" stroke="none" x="78" y="58.001999999999995"/>
          <rect x="78.5" y="58.501999999999995" width="2" height="5" fill="none"/>
        </g>
        <g id="X4-4" data-name="X4-4" fill="#b6bec6" stroke="#b6bec6" stroke-width="1">
          <rect width="3" height="6" stroke="none" x="82" y="58.001999999999995"/>
          <rect x="82.5" y="58.501999999999995" width="2" height="5" fill="none"/>
        </g>
        <g id="X5-4" data-name="X5-4" fill="#b6bec6" stroke="#b6bec6" stroke-width="1">
          <rect width="3" height="6" stroke="none" x="86" y="58.001999999999995"/>
          <rect x="86.5" y="58.501999999999995" width="2" height="5" fill="none"/>
        </g>
        <g id="X6-4" data-name="X6-4" fill="#b6bec6" stroke="#b6bec6" stroke-width="1">
          <rect width="3" height="6" stroke="none" x="90" y="58.001999999999995"/>
          <rect x="90.5" y="58.501999999999995" width="2" height="5" fill="none"/>
        </g>
        <g id="X7-4" data-name="X7-4" fill="#b6bec6" stroke="#b6bec6" stroke-width="1">
          <rect width="3" height="6" stroke="none" x="94" y="58.001999999999995"/>
          <rect x="94.5" y="58.501999999999995" width="2" height="5" fill="none"/>
        </g>
        <title>Top Right</title>
      </g>
      <g id="Top_Left" data-name="Top Left">
        <g id="X0-5" data-name="X0-5" fill="#b6bec6" stroke="#b6bec6" stroke-width="1">
          <rect width="3" height="6" stroke="none" x="5" y="37.001999999999995"/>
          <rect x="5.5" y="37.501999999999995" width="2" height="5" fill="none"/>
        </g>
        <g id="X1-5" data-name="X1-5" fill="#b6bec6" stroke="#b6bec6" stroke-width="1">
          <rect width="3" height="6" stroke="none" x="9" y="37.001999999999995"/>
          <rect x="9.5" y="37.501999999999995" width="2" height="5" fill="none"/>
        </g>
        <g id="X2-5" data-name="X2-5" fill="#b6bec6" stroke="#b6bec6" stroke-width="1">
          <rect width="3" height="6" stroke="none" x="13" y="37.001999999999995"/>
          <rect x="13.5" y="37.501999999999995" width="2" height="5" fill="none"/>
        </g>
        <g id="X3-5" data-name="X3-5" fill="#b6bec6" stroke="#b6bec6" stroke-width="1">
          <rect width="3" height="6" stroke="none" x="17" y="37.001999999999995"/>
          <rect x="17.5" y="37.501999999999995" width="2" height="5" fill="none"/>
        </g>
        <g id="X4-5" data-name="X4-5" fill="#b6bec6" stroke="#b6bec6" stroke-width="1">
          <rect width="3" height="6" stroke="none" x="21" y="37.001999999999995"/>
          <rect x="21.5" y="37.501999999999995" width="2" height="5" fill="none"/>
        </g>
        <g id="X5-5" data-name="X5-5" fill="#b6bec6" stroke="#b6bec6" stroke-width="1">
          <rect width="3" height="6" stroke="none" x="25" y="37.001999999999995"/>
          <rect x="25.5" y="37.501999999999995" width="2" height="5" fill="none"/>
        </g>
        <g id="X6-5" data-name="X6-5" fill="#b6bec6" stroke="#b6bec6" stroke-width="1">
          <rect width="3" height="6" stroke="none" x="29" y="37.001999999999995"/>
          <rect x="29.5" y="37.501999999999995" width="2" height="5" fill="none"/>
        </g>
        <g id="X7-5" data-name="X7-5" fill="#b6bec6" stroke="#b6bec6" stroke-width="1">
          <rect width="3" height="6" stroke="none" x="33" y="37.001999999999995"/>
          <rect x="33.5" y="37.501999999999995" width="2" height="5" fill="none"/>
        </g>
        <title>Top Left</title>
      </g>
      <g id="Top_Left-2" data-name="Top Left">
        <g id="X0-6" data-name="X0-6" fill="#b6bec6" stroke="#b6bec6" stroke-width="1">
          <rect width="3" height="6" stroke="none" x="4" y="58.001999999999995"/>
          <rect x="4.5" y="58.501999999999995" width="2" height="5" fill="none"/>
        </g>
        <g id="X1-6" data-name="X1-6" fill="#b6bec6" stroke="#b6bec6" stroke-width="1">
          <rect width="3" height="6" stroke="none" x="8" y="58.001999999999995"/>
          <rect x="8.5" y="58.501999999999995" width="2" height="5" fill="none"/>
        </g>
        <g id="X2-6" data-name="X2-6" fill="#b6bec6" stroke="#b6bec6" stroke-width="1">
          <rect width="3" height="6" stroke="none" x="12" y="58.001999999999995"/>
          <rect x="12.5" y="58.501999999999995" width="2" height="5" fill="none"/>
        </g>
        <g id="X3-6" data-name="X3-6" fill="#b6bec6" stroke="#b6bec6" stroke-width="1">
          <rect width="3" height="6" stroke="none" x="16" y="58.001999999999995"/>
          <rect x="16.5" y="58.501999999999995" width="2" height="5" fill="none"/>
        </g>
        <g id="X4-6" data-name="X4-6" fill="#b6bec6" stroke="#b6bec6" stroke-width="1">
          <rect width="3" height="6" stroke="none" x="20" y="58.001999999999995"/>
          <rect x="20.5" y="58.501999999999995" width="2" height="5" fill="none"/>
        </g>
        <g id="X5-6" data-name="X5-6" fill="#b6bec6" stroke="#b6bec6" stroke-width="1">
          <rect width="3" height="6" stroke="none" x="24" y="58.001999999999995"/>
          <rect x="24.5" y="58.501999999999995" width="2" height="5" fill="none"/>
        </g>
        <g id="X6-6" data-name="X6-6" fill="#b6bec6" stroke="#b6bec6" stroke-width="1">
          <rect width="3" height="6" stroke="none" x="28" y="58.001999999999995"/>
          <rect x="28.5" y="58.501999999999995" width="2" height="5" fill="none"/>
        </g>
        <g id="X7-6" data-name="X7-6" fill="#b6bec6" stroke="#b6bec6" stroke-width="1">
          <rect width="3" height="6" stroke="none" x="32" y="58.001999999999995"/>
          <rect x="32.5" y="58.501999999999995" width="2" height="5" fill="none"/>
        </g>
        <title>Top Left</title>
      </g>
      <g id="Power">
        <g id="X0-7" data-name="X0-7" fill="#b6bec6" stroke="#b6bec6" stroke-width="1">
          <rect width="3" height="6" stroke="none" x="5" y="10.001999999999995"/>
          <rect x="5.5" y="10.501999999999995" width="2" height="5" fill="none"/>
        </g>
        <g id="X1-7" data-name="X1-7" fill="#b6bec6" stroke="#b6bec6" stroke-width="1">
          <rect width="3" height="6" stroke="none" x="9" y="10.001999999999995"/>
          <rect x="9.5" y="10.501999999999995" width="2" height="5" fill="none"/>
        </g>
        <g id="X2-7" data-name="X2-7" fill="#b6bec6" stroke="#b6bec6" stroke-width="1">
          <rect width="3" height="6" stroke="none" x="13" y="10.001999999999995"/>
          <rect x="13.5" y="10.501999999999995" width="2" height="5" fill="none"/>
        </g>
        <g id="X3-7" data-name="X3-7" fill="#b6bec6" stroke="#b6bec6" stroke-width="1">
          <rect width="3" height="6" stroke="none" x="17" y="10.001999999999995"/>
          <rect x="17.5" y="10.501999999999995" width="2" height="5" fill="none"/>
        </g>
        <g id="X4-7" data-name="X4-7" fill="#b6bec6" stroke="#b6bec6" stroke-width="1">
          <rect width="3" height="6" stroke="none" x="22" y="10.001999999999995"/>
          <rect x="22.5" y="10.501999999999995" width="2" height="5" fill="none"/>
        </g>
        <g id="X5-7" data-name="X5-7" fill="#b6bec6" stroke="#b6bec6" stroke-width="1">
          <rect width="3" height="6" stroke="none" x="26" y="10.001999999999995"/>
          <rect x="26.5" y="10.501999999999995" width="2" height="5" fill="none"/>
        </g>
        <g id="X6-7" data-name="X6-7" fill="#b6bec6" stroke="#b6bec6" stroke-width="1">
          <rect width="3" height="6" stroke="none" x="30" y="10.001999999999995"/>
          <rect x="30.5" y="10.501999999999995" width="2" height="5" fill="none"/>
        </g>
        <g id="X7-7" data-name="X7-7" fill="#b6bec6" stroke="#b6bec6" stroke-width="1">
          <rect width="3" height="6" stroke="none" x="34" y="10.001999999999995"/>
          <rect x="34.5" y="10.501999999999995" width="2" height="5" fill="none"/>
        </g>
        <title>Power</title>
      </g>
    </g>
    <g id="Connectors">
      <g id="XF20">
        <g id="Up">
          <rect id="RJ45" width="10" height="10" fill="#0091dc" stroke="#0091dc" stroke-width="2" x="87" y="10.001999999999995"/>
        </g>
        <title>XF20</title>
      </g>
      <g id="XF10">
        <g id="Up-2" data-name="Up">
          <rect id="RJ45-2" data-name="RJ45" width="10" height="10" fill="#0091dc" stroke="#0091dc" stroke-width="2" x="68" y="10.001999999999995"/>
        </g>
        <title>XF10</title>
      </g>
    </g>
    <g id="LEDs">
      <g id="Top_Right-3" data-name="Top Right">
        <rect id="LED_0" data-name="0" width="3" height="2" fill="#b6bec6" x="67" y="33.001999999999995"/>
        <rect id="LED_1" data-name="1" width="3" height="2" fill="#b6bec6" x="71" y="33.001999999999995"/>
        <rect id="LED_2" data-name="2" width="3" height="2" fill="#b6bec6" x="75" y="33.001999999999995"/>
        <rect id="LED_3" data-name="3" width="3" height="2" fill="#b6bec6" x="79" y="33.001999999999995"/>
        <rect id="LED_4" data-name="4" width="3" height="2" fill="#b6bec6" x="83" y="33.001999999999995"/>
        <rect id="LED_5" data-name="5" width="3" height="2" fill="#b6bec6" x="87" y="33.001999999999995"/>
        <rect id="LED_6" data-name="6" width="3" height="2" fill="#b6bec6" x="91" y="33.001999999999995"/>
        <rect id="LED_7" data-name="7" width="3" height="2" fill="#b6bec6" x="95" y="33.001999999999995"/>
        <title>Top Right</title>
      </g>
      <g id="Top_Left-3" data-name="Top Left">
        <rect id="LED_0" data-name="0" width="3" height="2" fill="#b6bec6" x="5" y="33.001999999999995"/>
        <rect id="LED_1" data-name="1" width="3" height="2" fill="#b6bec6" x="9" y="33.001999999999995"/>
        <rect id="LED_2" data-name="2" width="3" height="2" fill="#b6bec6" x="13" y="33.001999999999995"/>
        <rect id="LED_3" data-name="3" width="3" height="2" fill="#b6bec6" x="17" y="33.001999999999995"/>
        <rect id="LED_4" data-name="4" width="3" height="2" fill="#b6bec6" x="21" y="33.001999999999995"/>
        <rect id="LED_5" data-name="5" width="3" height="2" fill="#b6bec6" x="25" y="33.001999999999995"/>
        <rect id="LED_6" data-name="6" width="3" height="2" fill="#b6bec6" x="29" y="33.001999999999995"/>
        <rect id="LED_7" data-name="7" width="3" height="2" fill="#b6bec6" x="33" y="33.001999999999995"/>
        <title>Top Left</title>
      </g>
      <rect id="LED_MD" width="3" height="2" fill="#b6bec6" data-name="MD" x="23" y="21.001999999999995">
        <title>MD</title>
      </rect>
      <rect id="LED_PL" width="3" height="2" fill="#b6bec6" data-name="PL" x="23" y="24.001999999999995">
        <title>PL</title>
      </rect>
    </g>
    <g id="Handle">
      <g id="Handle-2" data-name="Handle" fill="#e5e8eb" stroke="#e5e8eb" stroke-width="1">
        <rect width="102" height="25" stroke="none" y="60.001999999999995"/>
        <rect x="0.5" y="60.501999999999995" width="101" height="24" fill="none"/>
      </g>
      <g id="Festo_Logo" data-name="Festo Logo">
        <path id="F" d="M.121,3.533A.12.12,0,0,1,0,3.415V.118A.12.12,0,0,1,.121,0H3.494a.12.12,0,0,1,.121.118V.589a.119.119,0,0,1-.121.118H1.084A.119.119,0,0,0,.964.825V1.3a.12.12,0,0,0,.121.118H3.253a.119.119,0,0,1,.121.118V2a.119.119,0,0,1-.12.117H1.084a.12.12,0,0,0-.121.119V3.416a.119.119,0,0,1-.121.118Z" transform="translate(76 77.002)" fill="#0091dc"/>
        <path id="E" d="M0,.118A.12.12,0,0,1,.121,0H3.735a.12.12,0,0,1,.121.118V.589a.12.12,0,0,1-.121.118H1.085A.119.119,0,0,0,.964.825V1.3a.119.119,0,0,0,.121.118h2.41a.119.119,0,0,1,.121.118V2a.119.119,0,0,1-.121.117H1.085a.12.12,0,0,0-.121.119v.471a.119.119,0,0,0,.121.118H3.735a.119.119,0,0,1,.121.118v.471a.12.12,0,0,1-.121.118H.121A.12.12,0,0,1,0,3.416Z" transform="translate(79.856 77.002)" fill="#0091dc"/>
        <path id="S" d="M0,1.414a.715.715,0,0,0,.723.706H2.651a.238.238,0,0,1,.241.236v.235a.238.238,0,0,1-.241.236H1.084a.12.12,0,0,1-.121-.118.119.119,0,0,0-.12-.118H.12A.119.119,0,0,0,0,2.708v.118a.715.715,0,0,0,.723.707h2.41a.715.715,0,0,0,.722-.707V2.12a.714.714,0,0,0-.722-.706H1.2a.238.238,0,0,1-.241-.236V.942A.238.238,0,0,1,1.2.707H2.771a.119.119,0,0,1,.121.118.119.119,0,0,0,.12.118h.724a.119.119,0,0,0,.12-.118V.707A.716.716,0,0,0,3.133,0H.723A.715.715,0,0,0,0,.707Z" transform="translate(83.952 77.002)" fill="#0091dc"/>
        <path id="T" d="M0,.118A.12.12,0,0,1,.122,0H3.735a.12.12,0,0,1,.121.118V.589a.12.12,0,0,1-.121.118h-1.2a.119.119,0,0,0-.12.118v2.59a.12.12,0,0,1-.121.118H1.567a.12.12,0,0,1-.121-.118V.825a.119.119,0,0,0-.12-.118H.121A.12.12,0,0,1,0,.589V.118Z" transform="translate(88.048 77.002)" fill="#0091dc"/>
        <path id="O" d="M3.084,3.543H.711a.712.712,0,0,1-.655-.433A.7.7,0,0,1,0,2.835V.709a.706.706,0,0,1,.208-.5A.71.71,0,0,1,.711,0H3.084A.709.709,0,0,1,3.8.709V2.835a.709.709,0,0,1-.711.709ZM1.186.709a.237.237,0,0,0-.168.069A.234.234,0,0,0,.948.945V2.6a.236.236,0,0,0,.237.237H2.609A.236.236,0,0,0,2.847,2.6V.945A.234.234,0,0,0,2.777.778.237.237,0,0,0,2.609.709Z" transform="translate(92.205 77.002)" fill="#0091dc"/>
      </g>
    </g>
  </g>
</svg>
