<svg xmlns="http://www.w3.org/2000/svg" id="CPX-AP-A-16DI-D-M12-5P" width="50" height="107" viewBox="0 0 50 107">
  <g id="CPX-AP-A_Base" data-name="CPX-AP-A Base">
    <rect id="Base" width="50" height="107" fill="#e5e8eb"/>
    <g id="Festo_Logo" data-name="Festo Logo">
      <path id="F" d="M.091,2.814A.093.093,0,0,1,0,2.72V.094A.093.093,0,0,1,.091,0h2.54a.093.093,0,0,1,.091.094V.469a.092.092,0,0,1-.091.094H.817A.092.092,0,0,0,.726.657v.375a.093.093,0,0,0,.091.094H2.45a.092.092,0,0,1,.091.094V1.6a.092.092,0,0,1-.09.093H.817a.093.093,0,0,0-.091.094V2.72a.093.093,0,0,1-.091.094Z" transform="translate(27.2 1.951)" fill="#0091dc"/>
      <path id="E" d="M0,.094A.093.093,0,0,1,.091,0H2.813A.093.093,0,0,1,2.9.094V.469a.093.093,0,0,1-.091.094h-2A.092.092,0,0,0,.726.657v.375a.092.092,0,0,0,.091.094H2.631a.092.092,0,0,1,.091.094V1.6a.092.092,0,0,1-.091.093H.817a.093.093,0,0,0-.091.094v.375a.093.093,0,0,0,.091.094h2a.092.092,0,0,1,.091.094V2.72a.093.093,0,0,1-.091.094H.091A.093.093,0,0,1,0,2.72Z" transform="translate(30.102999999999998 1.951)" fill="#0091dc"/>
      <path id="S" d="M0,1.126a.553.553,0,0,0,.544.562H2a.185.185,0,0,1,.182.188v.187A.184.184,0,0,1,2,2.252H.816a.093.093,0,0,1-.091-.094.092.092,0,0,0-.09-.094H.09A.092.092,0,0,0,0,2.157v.094a.554.554,0,0,0,.544.563H2.359A.554.554,0,0,0,2.9,2.252V1.688a.553.553,0,0,0-.544-.562H.907A.185.185,0,0,1,.726.938V.751A.184.184,0,0,1,.907.563H2.086a.092.092,0,0,1,.091.094.092.092,0,0,0,.09.094h.545A.092.092,0,0,0,2.9.657V.563A.554.554,0,0,0,2.359,0H.544A.554.554,0,0,0,0,.563Z" transform="translate(33.188 1.951)" fill="#0091dc"/>
      <path id="T" d="M0,.094A.093.093,0,0,1,.092,0H2.812A.093.093,0,0,1,2.9.094V.469a.093.093,0,0,1-.091.094H1.906a.092.092,0,0,0-.09.094V2.72a.093.093,0,0,1-.091.094H1.18a.093.093,0,0,1-.091-.094V.657A.092.092,0,0,0,1,.563H.091A.093.093,0,0,1,0,.469V.094Z" transform="translate(36.272 1.951)" fill="#0091dc"/>
      <path id="O" d="M2.322,2.822H.535a.508.508,0,0,1-.208-.044.533.533,0,0,1-.17-.121.565.565,0,0,1-.115-.179A.587.587,0,0,1,0,2.258V.565A.587.587,0,0,1,.042.345.566.566,0,0,1,.157.165.534.534,0,0,1,.327.044.507.507,0,0,1,.535,0H2.322a.509.509,0,0,1,.209.044A.532.532,0,0,1,2.7.165a.565.565,0,0,1,.115.18.589.589,0,0,1,.042.22V2.258a.588.588,0,0,1-.042.22.565.565,0,0,1-.115.179.532.532,0,0,1-.17.121A.509.509,0,0,1,2.322,2.822ZM.893.565A.173.173,0,0,0,.766.62.192.192,0,0,0,.714.753V2.069A.193.193,0,0,0,.766,2.2a.173.173,0,0,0,.127.055H1.965A.173.173,0,0,0,2.091,2.2a.193.193,0,0,0,.052-.133V.753A.192.192,0,0,0,2.091.62.173.173,0,0,0,1.965.565Z" transform="translate(39.402 1.951)" fill="#0091dc"/>
    </g>
  </g>
  <g id="Auxiliary_Interfaces" data-name="Auxiliary Interfaces">
    <circle id="X7" cx="38.0" cy="91.0" r="6" fill="#b6bec6" stroke="#b6bec6" stroke-width="2">
      <title>X7</title>
    </circle>
    <circle id="X6" cx="12.0" cy="91.0" r="6" fill="#b6bec6" stroke="#b6bec6" stroke-width="2">
      <title>X6</title>
    </circle>
    <circle id="X5" cx="38.0" cy="67.0" r="6" fill="#b6bec6" stroke="#b6bec6" stroke-width="2">
      <title>X5</title>
    </circle>
    <circle id="X4" cx="12.0" cy="67.0" r="6" fill="#b6bec6" stroke="#b6bec6" stroke-width="2">
      <title>X4</title>
    </circle>
    <circle id="X3" cx="38.0" cy="43.0" r="6" fill="#b6bec6" stroke="#b6bec6" stroke-width="2">
      <title>X3</title>
    </circle>
    <circle id="X2" cx="12.0" cy="43.0" r="6" fill="#b6bec6" stroke="#b6bec6" stroke-width="2">
      <title>X2</title>
    </circle>
    <circle id="X1" cx="38.0" cy="19.0" r="6" fill="#b6bec6" stroke="#b6bec6" stroke-width="2">
      <title>X1</title>
    </circle>
    <circle id="X0" cx="12.0" cy="19.0" r="6" fill="#b6bec6" stroke="#b6bec6" stroke-width="2">
      <title>X0</title>
    </circle>
  </g>
  <g id="LEDs">
    <g id="Row_4" data-name="Row 4">
      <rect id="LED_15" data-name="15" width="6" height="2" fill="#b6bec6" x="22" y="96"/>
      <rect id="LED_14" data-name="14" width="6" height="2" fill="#b6bec6" x="22" y="92"/>
      <rect id="LED_13" data-name="13" width="6" height="2" fill="#b6bec6" x="22" y="88"/>
      <rect id="LED_12" data-name="12" width="6" height="2" fill="#b6bec6" x="22" y="84"/>
      <title>Row 4</title>
    </g>
    <g id="Row_3" data-name="Row 3">
      <rect id="LED_11" data-name="11" width="6" height="2" fill="#b6bec6" x="22" y="72"/>
      <rect id="LED_10" data-name="10" width="6" height="2" fill="#b6bec6" x="22" y="68"/>
      <rect id="LED_9" data-name="9" width="6" height="2" fill="#b6bec6" x="22" y="64"/>
      <rect id="LED_8" data-name="8" width="6" height="2" fill="#b6bec6" x="22" y="60"/>
      <title>Row 3</title>
    </g>
    <g id="Row_2" data-name="Row 2">
      <rect id="LED_7" data-name="7" width="6" height="2" fill="#b6bec6" x="22" y="48"/>
      <rect id="LED_6" data-name="6" width="6" height="2" fill="#b6bec6" x="22" y="44"/>
      <rect id="LED_5" data-name="5" width="6" height="2" fill="#b6bec6" x="22" y="40"/>
      <rect id="LED_4" data-name="4" width="6" height="2" fill="#b6bec6" x="22" y="36"/>
      <title>Row 2</title>
    </g>
    <g id="Row_1" data-name="Row 1">
      <rect id="LED_3" data-name="3" width="6" height="2" fill="#b6bec6" x="22" y="24"/>
      <rect id="LED_2" data-name="2" width="6" height="2" fill="#b6bec6" x="22" y="20"/>
      <rect id="LED_1" data-name="1" width="6" height="2" fill="#b6bec6" x="22" y="16"/>
      <rect id="LED_0" data-name="0" width="6" height="2" fill="#b6bec6" x="22" y="12"/>
      <title>Row 1</title>
    </g>
    <g id="Top">
      <rect id="LED_PL" width="6" height="2" fill="#b6bec6" data-name="PL" x="30" y="8"/>
      <rect id="LED_MD" width="6" height="2" fill="#b6bec6" data-name="MD" x="22" y="8"/>
      <title>Top</title>
    </g>
  </g>
</svg>
