<svg xmlns="http://www.w3.org/2000/svg" id="CPX-AP-I-M12" width="33.005" height="186" viewBox="0 0 33.005 186">
  <g id="CPX-AP-I_I_O_Module_Base" data-name="CPX-AP-I I/O Module Base">
    <g id="Body">
      <path id="Bottom" d="M0,52.048c0-.024,0-.048,0-.071V0H33V52.044h0v0C33,54.231,25.614,56,16.5,56S0,54.231,0,52.048Z" transform="translate(0.001 130)" fill="#d8dce1"/>
      <path id="Top" d="M0,130V3.722H.029C.531,1.646,7.713,0,16.5,0s15.97,1.646,16.472,3.722H33V130Z" transform="translate(-0.001 0)" fill="#e5e8eb"/>
      <g id="Festo_Logo" data-name="Festo Logo">
        <path id="F" d="M.066,1.943A.066.066,0,0,1,0,1.878V.065A.066.066,0,0,1,.066,0H1.922a.066.066,0,0,1,.066.065V.324a.066.066,0,0,1-.066.065H.6A.066.066,0,0,0,.53.454V.713A.066.066,0,0,0,.6.778H1.789a.066.066,0,0,1,.066.065V1.1a.065.065,0,0,1-.066.064H.6a.066.066,0,0,0-.066.065v.647a.066.066,0,0,1-.066.065Z" transform="translate(21.102 16.336)" fill="#0091dc"/>
        <path id="E" d="M0,.065A.066.066,0,0,1,.066,0H2.054a.066.066,0,0,1,.066.065V.324a.066.066,0,0,1-.066.065H.6A.065.065,0,0,0,.53.454V.713A.066.066,0,0,0,.6.778H1.922a.066.066,0,0,1,.066.065V1.1a.065.065,0,0,1-.066.064H.6a.066.066,0,0,0-.066.065V1.49A.066.066,0,0,0,.6,1.555H2.054a.066.066,0,0,1,.066.065v.259a.066.066,0,0,1-.066.065H.066A.066.066,0,0,1,0,1.879Z" transform="translate(23.223 16.336)" fill="#0091dc"/>
        <path id="S" d="M0,.778a.393.393,0,0,0,.4.388h1.06a.131.131,0,0,1,.133.13v.129a.131.131,0,0,1-.133.13H.6A.066.066,0,0,1,.53,1.49a.066.066,0,0,0-.066-.065h-.4A.066.066,0,0,0,0,1.49v.065a.393.393,0,0,0,.4.389H1.723a.393.393,0,0,0,.4-.389V1.166a.393.393,0,0,0-.4-.388H.663A.131.131,0,0,1,.53.648V.518A.131.131,0,0,1,.663.389h.861a.065.065,0,0,1,.067.065.065.065,0,0,0,.066.065h.4A.066.066,0,0,0,2.12.454V.389A.394.394,0,0,0,1.723,0H.4A.393.393,0,0,0,0,.389Z" transform="translate(25.476 16.336)" fill="#0091dc"/>
        <path id="T" d="M0,.065A.066.066,0,0,1,.067,0H2.054a.066.066,0,0,1,.067.065V.324a.066.066,0,0,1-.067.065H1.392a.065.065,0,0,0-.066.065V1.878a.066.066,0,0,1-.067.065h-.4A.066.066,0,0,1,.8,1.878V.454A.065.065,0,0,0,.729.389H.067A.066.066,0,0,1,0,.324V.065Z" transform="translate(27.729 16.336)" fill="#0091dc"/>
        <path id="O" d="M1.7,1.949H.391a.391.391,0,0,1-.36-.238A.386.386,0,0,1,0,1.559V.39A.388.388,0,0,1,.115.114.39.39,0,0,1,.391,0H1.7a.39.39,0,0,1,.391.39V1.559a.39.39,0,0,1-.391.39ZM.652.39A.13.13,0,0,0,.56.428.129.129,0,0,0,.522.52v.909a.13.13,0,0,0,.131.13h.783a.13.13,0,0,0,.131-.13V.52A.129.129,0,0,0,1.527.428.13.13,0,0,0,1.435.39Z" transform="translate(30.015 16.336)" fill="#0091dc"/>
      </g>
    </g>
    <g id="Auxiliary_Interfaces" data-name="Auxiliary Interfaces">
      <circle id="XD2" cx="25.0" cy="162.0" r="4" fill="#b6bec6" stroke="#b6bec6" stroke-width="2">
        <title>XD2</title>
      </circle>
      <circle id="XD1" cx="8.0" cy="162.0" r="4" fill="#b6bec6" stroke="#b6bec6" stroke-width="2">
        <title>XD1</title>
      </circle>
    </g>
    <g id="LEDs">
      <rect id="LED_7" data-name="7" width="6" height="6" fill="#b6bec6" x="27" y="122">
        <title>7</title>
      </rect>
      <rect id="LED_6" data-name="6" width="6" height="6" fill="#b6bec6" y="122">
        <title>6</title>
      </rect>
      <rect id="LED_5" data-name="5" width="6" height="6" fill="#b6bec6" x="27" y="97">
        <title>5</title>
      </rect>
      <rect id="LED_4" data-name="4" width="6" height="6" fill="#b6bec6" y="97">
        <title>4</title>
      </rect>
      <rect id="LED_3" data-name="3" width="6" height="6" fill="#b6bec6" x="27" y="73">
        <title>3</title>
      </rect>
      <rect id="LED_2" data-name="2" width="6" height="6" fill="#b6bec6" y="73">
        <title>2</title>
      </rect>
      <rect id="LED_1" data-name="1" width="6" height="6" fill="#b6bec6" x="27" y="48">
        <title>1</title>
      </rect>
      <rect id="LED_0" data-name="0" width="6" height="6" fill="#b6bec6" y="48">
        <title>0</title>
      </rect>
      <rect id="LED_MD" width="6" height="6" fill="#b6bec6" data-name="MD" x="27" y="23">
        <title>MD</title>
      </rect>
      <rect id="LED_PL" width="6" height="6" fill="#b6bec6" data-name="PL" y="23">
        <title>PL</title>
      </rect>
    </g>
  </g>
  <g id="Auxiliary_Interfaces-2" data-name="Auxiliary Interfaces">
    <circle id="X3" cx="21.5" cy="113.5" r="6" fill="#b6bec6" stroke="#b6bec6" stroke-width="2">
      <title>X3</title>
    </circle>
    <circle id="X2" cx="21.5" cy="88.5" r="6" fill="#b6bec6" stroke="#b6bec6" stroke-width="2">
      <title>X2</title>
    </circle>
    <circle id="X1" cx="21.5" cy="63.5" r="6" fill="#b6bec6" stroke="#b6bec6" stroke-width="2">
      <title>X1</title>
    </circle>
    <circle id="X0" cx="21.5" cy="39.5" r="6" fill="#b6bec6" stroke="#b6bec6" stroke-width="2">
      <title>X0</title>
    </circle>
  </g>
  <g id="Connectors">
    <g id="XF20">
      <g id="Right">
        <circle id="M8" cx="25.5" cy="139.5" r="4" fill="#0091dc" stroke="#0091dc" stroke-width="2"/>
      </g>
      <title>XF20</title>
    </g>
    <g id="XF10">
      <g id="Left">
        <circle id="M8-2" data-name="M8" cx="8.5" cy="139.5" r="4" fill="#0091dc" stroke="#0091dc" stroke-width="2"/>
      </g>
      <title>XF10</title>
    </g>
  </g>
</svg>
