<svg xmlns="http://www.w3.org/2000/svg" width="68" height="186" viewBox="0 0 68 186">
  <g id="CPX-AP-I-M12_Wide">
    <g id="CPX-AP-I_IO_Wide_Module_Base" data-name="CPX-AP-I IO Wide Module Base">
      <g id="Body">
        <path id="Bottom" d="M0,52V0H68V52c0,2.209-15.222,4-34,4S0,54.209,0,52Z" transform="translate(0.002 130)" fill="#d8dce1"/>
        <path id="Top" d="M0,130V4C0,1.791,15.222,0,34,0S68,1.791,68,4V130Z" transform="translate(0 0)" fill="#e5e8eb"/>
        <g id="Festo_Logo" data-name="Festo Logo">
          <path id="F" d="M.066,1.943A.066.066,0,0,1,0,1.878V.065A.066.066,0,0,1,.066,0H1.922a.066.066,0,0,1,.066.065V.324a.066.066,0,0,1-.066.065H.6A.066.066,0,0,0,.53.454V.713A.066.066,0,0,0,.6.778H1.789a.066.066,0,0,1,.066.065V1.1a.065.065,0,0,1-.066.064H.6a.066.066,0,0,0-.066.065v.647a.066.066,0,0,1-.066.065Z" transform="translate(56.102 16.336)" fill="#0091dc"/>
          <path id="E" d="M0,.065A.066.066,0,0,1,.066,0H2.054a.066.066,0,0,1,.066.065V.324a.066.066,0,0,1-.066.065H.6A.065.065,0,0,0,.53.454V.713A.066.066,0,0,0,.6.778H1.922a.066.066,0,0,1,.066.065V1.1a.065.065,0,0,1-.066.064H.6a.066.066,0,0,0-.066.065V1.49A.066.066,0,0,0,.6,1.555H2.054a.066.066,0,0,1,.066.065v.259a.066.066,0,0,1-.066.065H.066A.066.066,0,0,1,0,1.879Z" transform="translate(58.223 16.336)" fill="#0091dc"/>
          <path id="S" d="M0,.778a.393.393,0,0,0,.4.388h1.06a.131.131,0,0,1,.133.13v.129a.131.131,0,0,1-.133.13H.6A.066.066,0,0,1,.53,1.49a.066.066,0,0,0-.066-.065h-.4A.066.066,0,0,0,0,1.49v.065a.393.393,0,0,0,.4.389H1.723a.393.393,0,0,0,.4-.389V1.166a.393.393,0,0,0-.4-.388H.663A.131.131,0,0,1,.53.648V.518A.131.131,0,0,1,.663.389h.861a.065.065,0,0,1,.067.065.065.065,0,0,0,.066.065h.4A.066.066,0,0,0,2.12.454V.389A.394.394,0,0,0,1.723,0H.4A.393.393,0,0,0,0,.389Z" transform="translate(60.476 16.336)" fill="#0091dc"/>
          <path id="T" d="M0,.065A.066.066,0,0,1,.067,0H2.054a.066.066,0,0,1,.067.065V.324a.066.066,0,0,1-.067.065H1.392a.065.065,0,0,0-.066.065V1.878a.066.066,0,0,1-.067.065h-.4A.066.066,0,0,1,.8,1.878V.454A.065.065,0,0,0,.729.389H.067A.066.066,0,0,1,0,.324V.065Z" transform="translate(62.729 16.336)" fill="#0091dc"/>
          <path id="O" d="M1.7,1.949H.391a.391.391,0,0,1-.36-.238A.386.386,0,0,1,0,1.559V.39A.388.388,0,0,1,.115.114.39.39,0,0,1,.391,0H1.7a.39.39,0,0,1,.391.39V1.559a.39.39,0,0,1-.391.39ZM.652.39A.13.13,0,0,0,.56.428.129.129,0,0,0,.522.52v.909a.13.13,0,0,0,.131.13h.783a.13.13,0,0,0,.131-.13V.52A.129.129,0,0,0,1.527.428.13.13,0,0,0,1.435.39Z" transform="translate(65.015 16.336)" fill="#0091dc"/>
        </g>
      </g>
      <g id="Auxiliary_Interfaces" data-name="Auxiliary Interfaces">
        <circle id="XD2" cx="46.5" cy="162.5" r="4" fill="#b6bec6" stroke="#b6bec6" stroke-width="2">
          <title>XD2</title>
        </circle>
        <circle id="XD1" cx="21.5" cy="162.5" r="4" fill="#b6bec6" stroke="#b6bec6" stroke-width="2">
          <title>XD1</title>
        </circle>
      </g>
      <g id="LEDs">
        <rect id="LED_15" data-name="15" width="6" height="6" fill="#b6bec6" x="62" y="122">
          <title>15</title>
        </rect>
        <rect id="LED_14" data-name="14" width="6" height="6" fill="#b6bec6" x="45" y="122">
          <title>14</title>
        </rect>
        <rect id="LED_13" data-name="13" width="6" height="6" fill="#b6bec6" x="17" y="122">
          <title>13</title>
        </rect>
        <rect id="LED_12" data-name="12" width="6" height="6" fill="#b6bec6" y="122">
          <title>12</title>
        </rect>
        <rect id="LED_11" data-name="11" width="6" height="6" fill="#b6bec6" x="62" y="97">
          <title>11</title>
        </rect>
        <rect id="LED_10" data-name="10" width="6" height="6" fill="#b6bec6" x="45" y="97">
          <title>10</title>
        </rect>
        <rect id="LED_9" data-name="9" width="6" height="6" fill="#b6bec6" x="17" y="97">
          <title>9</title>
        </rect>
        <rect id="LED_8" data-name="8" width="6" height="6" fill="#b6bec6" y="97">
          <title>8</title>
        </rect>
        <rect id="LED_7" data-name="7" width="6" height="6" fill="#b6bec6" x="62" y="73">
          <title>7</title>
        </rect>
        <rect id="LED_6" data-name="6" width="6" height="6" fill="#b6bec6" x="45" y="73">
          <title>6</title>
        </rect>
        <rect id="LED_5" data-name="5" width="6" height="6" fill="#b6bec6" x="17" y="73">
          <title>5</title>
        </rect>
        <rect id="LED_4" data-name="4" width="6" height="6" fill="#b6bec6" y="73">
          <title>4</title>
        </rect>
        <rect id="LED_3" data-name="3" width="6" height="6" fill="#b6bec6" x="62" y="48">
          <title>3</title>
        </rect>
        <rect id="LED_2" data-name="2" width="6" height="6" fill="#b6bec6" x="45" y="48">
          <title>2</title>
        </rect>
        <rect id="LED_1" data-name="1" width="6" height="6" fill="#b6bec6" x="17" y="48">
          <title>1</title>
        </rect>
        <rect id="LED_0" data-name="0" width="6" height="6" fill="#b6bec6" y="48">
          <title>0</title>
        </rect>
        <rect id="LED_MD" width="6" height="6" fill="#b6bec6" data-name="MD" x="62" y="23">
          <title>MD</title>
        </rect>
        <rect id="LED_PL" width="6" height="6" fill="#b6bec6" data-name="PL" y="23">
          <title>PL</title>
        </rect>
      </g>
    </g>
    <g id="Connectors">
      <g id="XF20">
        <g id="Right">
          <circle id="M8" cx="46.5" cy="139.5" r="4" fill="#0091dc" stroke="#0091dc" stroke-width="2"/>
        </g>
        <title>XF20</title>
      </g>
      <g id="XF10">
        <g id="Left">
          <circle id="M8-2" data-name="M8" cx="21.5" cy="139.5" r="4" fill="#0091dc" stroke="#0091dc" stroke-width="2"/>
        </g>
        <title>XF10</title>
      </g>
    </g>
    <g id="Auxiliary_Interfaces-2" data-name="Auxiliary Interfaces">
      <circle id="X7" cx="56.5" cy="113.0" r="6" fill="#b6bec6" stroke="#b6bec6" stroke-width="2">
        <title>X7</title>
      </circle>
      <circle id="X6" cx="11.5" cy="113.0" r="6" fill="#b6bec6" stroke="#b6bec6" stroke-width="2">
        <title>X6</title>
      </circle>
      <circle id="X5" cx="56.5" cy="88.0" r="6" fill="#b6bec6" stroke="#b6bec6" stroke-width="2">
        <title>X5</title>
      </circle>
      <circle id="X4" cx="11.5" cy="88.0" r="6" fill="#b6bec6" stroke="#b6bec6" stroke-width="2">
        <title>X4</title>
      </circle>
      <circle id="X3" cx="56.5" cy="63.0" r="6" fill="#b6bec6" stroke="#b6bec6" stroke-width="2">
        <title>X3</title>
      </circle>
      <circle id="X2" cx="11.5" cy="63.0" r="6" fill="#b6bec6" stroke="#b6bec6" stroke-width="2">
        <title>X2</title>
      </circle>
      <circle id="X1" cx="56.5" cy="39.0" r="6" fill="#b6bec6" stroke="#b6bec6" stroke-width="2">
        <title>X1</title>
      </circle>
      <circle id="X0" cx="11.5" cy="39.0" r="6" fill="#b6bec6" stroke="#b6bec6" stroke-width="2">
        <title>X0</title>
      </circle>
    </g>
  </g>
</svg>
