<svg xmlns="http://www.w3.org/2000/svg" id="CPX-AP-A-12DI4DO-PI" width="50" height="107" viewBox="0 0 50 107">
  <g id="CPX-AP-A_Base" data-name="CPX-AP-A Base">
    <rect id="Base" width="50" height="107" fill="#e5e8eb"/>
    <g id="Festo_Logo" data-name="Festo Logo">
      <path id="F" d="M.091,2.814A.093.093,0,0,1,0,2.72V.094A.093.093,0,0,1,.091,0h2.54a.093.093,0,0,1,.091.094V.469a.092.092,0,0,1-.091.094H.817A.092.092,0,0,0,.726.657v.375a.093.093,0,0,0,.091.094H2.45a.092.092,0,0,1,.091.094V1.6a.092.092,0,0,1-.09.093H.817a.093.093,0,0,0-.091.094V2.72a.093.093,0,0,1-.091.094Z" transform="translate(27.2 1.951)" fill="#0091dc"/>
      <path id="E" d="M0,.094A.093.093,0,0,1,.091,0H2.813A.093.093,0,0,1,2.9.094V.469a.093.093,0,0,1-.091.094h-2A.092.092,0,0,0,.726.657v.375a.092.092,0,0,0,.091.094H2.631a.092.092,0,0,1,.091.094V1.6a.092.092,0,0,1-.091.093H.817a.093.093,0,0,0-.091.094v.375a.093.093,0,0,0,.091.094h2a.092.092,0,0,1,.091.094V2.72a.093.093,0,0,1-.091.094H.091A.093.093,0,0,1,0,2.72Z" transform="translate(30.102999999999998 1.951)" fill="#0091dc"/>
      <path id="S" d="M0,1.126a.553.553,0,0,0,.544.562H2a.185.185,0,0,1,.182.188v.187A.184.184,0,0,1,2,2.252H.816a.093.093,0,0,1-.091-.094.092.092,0,0,0-.09-.094H.09A.092.092,0,0,0,0,2.157v.094a.554.554,0,0,0,.544.563H2.359A.554.554,0,0,0,2.9,2.252V1.688a.553.553,0,0,0-.544-.562H.907A.185.185,0,0,1,.726.938V.751A.184.184,0,0,1,.907.563H2.086a.092.092,0,0,1,.091.094.092.092,0,0,0,.09.094h.545A.092.092,0,0,0,2.9.657V.563A.554.554,0,0,0,2.359,0H.544A.554.554,0,0,0,0,.563Z" transform="translate(33.188 1.951)" fill="#0091dc"/>
      <path id="T" d="M0,.094A.093.093,0,0,1,.092,0H2.812A.093.093,0,0,1,2.9.094V.469a.093.093,0,0,1-.091.094H1.906a.092.092,0,0,0-.09.094V2.72a.093.093,0,0,1-.091.094H1.18a.093.093,0,0,1-.091-.094V.657A.092.092,0,0,0,1,.563H.091A.093.093,0,0,1,0,.469V.094Z" transform="translate(36.272 1.951)" fill="#0091dc"/>
      <path id="O" d="M2.322,2.822H.535a.508.508,0,0,1-.208-.044.533.533,0,0,1-.17-.121.565.565,0,0,1-.115-.179A.587.587,0,0,1,0,2.258V.565A.587.587,0,0,1,.042.345.566.566,0,0,1,.157.165.534.534,0,0,1,.327.044.507.507,0,0,1,.535,0H2.322a.509.509,0,0,1,.209.044A.532.532,0,0,1,2.7.165a.565.565,0,0,1,.115.18.589.589,0,0,1,.042.22V2.258a.588.588,0,0,1-.042.22.565.565,0,0,1-.115.179.532.532,0,0,1-.17.121A.509.509,0,0,1,2.322,2.822ZM.893.565A.173.173,0,0,0,.766.62.192.192,0,0,0,.714.753V2.069A.193.193,0,0,0,.766,2.2a.173.173,0,0,0,.127.055H1.965A.173.173,0,0,0,2.091,2.2a.193.193,0,0,0,.052-.133V.753A.192.192,0,0,0,2.091.62.173.173,0,0,0,1.965.565Z" transform="translate(39.402 1.951)" fill="#0091dc"/>
    </g>
    <line id="Line" x2="49" transform="translate(0.5 29.5)" fill="none" stroke="#d8dce1" stroke-linecap="square" stroke-width="1"/>
  </g>
  <g id="Auxiliary_Interfaces" data-name="Auxiliary Interfaces">
    <rect id="Right" width="9" height="58" fill="#b6bec6" x="27" y="36.0">
      <title>Right</title>
    </rect>
    <rect id="Left" width="9" height="58" fill="#b6bec6" x="14" y="36.0">
      <title>Left</title>
    </rect>
        <g id="X0" data-name="X0" fill="#b6bec6" stroke="#b6bec6" stroke-width="1">
          <rect width="6" height="6" stroke="none" x="15.5" y="37"/>
          <rect x="16.0" y="37.5" width="5" height="5" fill="none"/>
        </g>
        <g id="X1" data-name="X1" fill="#b6bec6" stroke="#b6bec6" stroke-width="1">
          <rect width="6" height="6" stroke="none" x="15.5" y="44"/>
          <rect x="16.0" y="44.5" width="5" height="5" fill="none"/>
        </g>
        <g id="X2" data-name="X2" fill="#b6bec6" stroke="#b6bec6" stroke-width="1">
          <rect width="6" height="6" stroke="none" x="15.5" y="51"/>
          <rect x="16.0" y="51.5" width="5" height="5" fill="none"/>
        </g>
        <g id="X3" data-name="X3" fill="#b6bec6" stroke="#b6bec6" stroke-width="1">
          <rect width="6" height="6" stroke="none" x="15.5" y="58"/>
          <rect x="16.0" y="58.5" width="5" height="5" fill="none"/>
        </g>
        <g id="X4" data-name="X4" fill="#b6bec6" stroke="#b6bec6" stroke-width="1">
          <rect width="6" height="6" stroke="none" x="15.5" y="65"/>
          <rect x="16.0" y="65.5" width="5" height="5" fill="none"/>
        </g>
        <g id="X5" data-name="X5" fill="#b6bec6" stroke="#b6bec6" stroke-width="1">
          <rect width="6" height="6" stroke="none" x="15.5" y="72"/>
          <rect x="16.0" y="72.5" width="5" height="5" fill="none"/>
        </g>
        <g id="X6" data-name="X6" fill="#b6bec6" stroke="#b6bec6" stroke-width="1">
          <rect width="6" height="6" stroke="none" x="15.5" y="79"/>
          <rect x="16.0" y="79.5" width="5" height="5" fill="none"/>
        </g>
        <g id="X7" data-name="X7" fill="#b6bec6" stroke="#b6bec6" stroke-width="1">
          <rect width="6" height="6" stroke="none" x="15.5" y="86"/>
          <rect x="16.0" y="86.5" width="5" height="5" fill="none"/>
        </g>
        <g id="X8" data-name="X8" fill="#b6bec6" stroke="#b6bec6" stroke-width="1">
          <rect width="6" height="6" stroke="none" x="28.5" y="37"/>
          <rect x="29.0" y="37.5" width="5" height="5" fill="none"/>
        </g>
        <g id="X9" data-name="X9" fill="#b6bec6" stroke="#b6bec6" stroke-width="1">
          <rect width="6" height="6" stroke="none" x="28.5" y="44"/>
          <rect x="29.0" y="44.5" width="5" height="5" fill="none"/>
        </g>
        <g id="X10" data-name="X10" fill="#b6bec6" stroke="#b6bec6" stroke-width="1">
          <rect width="6" height="6" stroke="none" x="28.5" y="51"/>
          <rect x="29.0" y="51.5" width="5" height="5" fill="none"/>
        </g>
        <g id="X11" data-name="X11" fill="#b6bec6" stroke="#b6bec6" stroke-width="1">
          <rect width="6" height="6" stroke="none" x="28.5" y="58"/>
          <rect x="29.0" y="58.5" width="5" height="5" fill="none"/>
        </g>
        <g id="X12" data-name="X12" fill="#b6bec6" stroke="#b6bec6" stroke-width="1">
          <rect width="6" height="6" stroke="none" x="28.5" y="65"/>
          <rect x="29.0" y="65.5" width="5" height="5" fill="none"/>
        </g>
        <g id="X13" data-name="X13" fill="#b6bec6" stroke="#b6bec6" stroke-width="1">
          <rect width="6" height="6" stroke="none" x="28.5" y="72"/>
          <rect x="29.0" y="72.5" width="5" height="5" fill="none"/>
        </g>
        <g id="X14" data-name="X14" fill="#b6bec6" stroke="#b6bec6" stroke-width="1">
          <rect width="6" height="6" stroke="none" x="28.5" y="79"/>
          <rect x="29.0" y="79.5" width="5" height="5" fill="none"/>
        </g>
        <g id="X15" data-name="X15" fill="#b6bec6" stroke="#b6bec6" stroke-width="1">
          <rect width="6" height="6" stroke="none" x="28.5" y="86"/>
          <rect x="29.0" y="86.5" width="5" height="5" fill="none"/>
        </g>
  </g>
  <g id="LEDs">
    <g id="Right-2" data-name="Right">
      <rect id="LED_O3" width="6" height="2" fill="#b6bec6" data-name="O3" x="37" y="26"/>
      <rect id="LED_O2" width="6" height="2" fill="#b6bec6" data-name="O2" x="29" y="26"/>
      <rect id="LED_I11" width="6" height="2" fill="#b6bec6" data-name="I11" x="37" y="22"/>
      <rect id="LED_I10" width="6" height="2" fill="#b6bec6" data-name="I10" x="29" y="22"/>
      <rect id="LED_I7" width="6" height="2" fill="#b6bec6" data-name="I7" x="37" y="18"/>
      <rect id="LED_I6" width="6" height="2" fill="#b6bec6" data-name="I6" x="29" y="18"/>
      <rect id="LED_I3" width="6" height="2" fill="#b6bec6" data-name="I3" x="37" y="14"/>
      <rect id="LED_I2" width="6" height="2" fill="#b6bec6" data-name="I2" x="29" y="14"/>
      <rect id="LED_PL" width="6" height="2" fill="#b6bec6" data-name="PL" x="37" y="10"/>
      <rect id="LED_MD" width="6" height="2" fill="#b6bec6" data-name="MD" x="29" y="10"/>
      <title>Right</title>
    </g>
    <g id="Left-2" data-name="Left">
      <rect id="LED_O1" width="6" height="2" fill="#b6bec6" data-name="O1" x="15" y="26"/>
      <rect id="LED_O0" width="6" height="2" fill="#b6bec6" data-name="O0" x="7" y="26"/>
      <rect id="LED_I9" width="6" height="2" fill="#b6bec6" data-name="I9" x="15" y="22"/>
      <rect id="LED_I8" width="6" height="2" fill="#b6bec6" data-name="I8" x="7" y="22"/>
      <rect id="LED_I5" width="6" height="2" fill="#b6bec6" data-name="I5" x="15" y="18"/>
      <rect id="LED_I4" width="6" height="2" fill="#b6bec6" data-name="I4" x="7" y="18"/>
      <rect id="LED_I1" width="6" height="2" fill="#b6bec6" data-name="I1" x="15" y="14"/>
      <rect id="LED_I0" width="6" height="2" fill="#b6bec6" data-name="I0" x="7" y="14"/>
      <title>Left</title>
    </g>
  </g>
</svg>
