<svg xmlns="http://www.w3.org/2000/svg" width="39" height="109" viewBox="0 0 39 109">
  <g id="MPA1-S">
    <rect id="Body" width="39" height="105" fill="#f2f3f5"/>
    <g id="Valves">
      <g id="Valve">
        <rect id="Fitting" width="7" height="4" fill="#b6bec6" x="1" y="105"/>
        <rect id="Bottom" width="9" height="63" fill="#d8dce1" y="42"/>
        <rect id="Top" width="9" height="42" fill="#e5e8eb"/>
        <circle id="Manual_Override" data-name="Manual Override" cx="4.5" cy="25.5" r="3.5" fill="#b6bec6"/>
        <rect id="LED" width="3" height="5" fill="#b6bec6" x="6"/>
        <rect id="LED-2" data-name="LED" width="3" height="5" fill="#b6bec6"/>
      </g>
      <g id="Valve-2" data-name="Valve">
        <rect id="Fitting-2" data-name="Fitting" width="7" height="4" fill="#b6bec6" x="11" y="105"/>
        <rect id="Bottom-2" data-name="Bottom" width="9" height="63" fill="#d8dce1" x="10" y="42"/>
        <rect id="Top-2" data-name="Top" width="9" height="42" fill="#e5e8eb" x="10"/>
        <circle id="Manual_Override-2" data-name="Manual Override" cx="14.5" cy="25.5" r="3.5" fill="#b6bec6"/>
        <circle id="Manual_Override-3" data-name="Manual Override" cx="14.5" cy="11.5" r="3.5" fill="#b6bec6"/>
        <rect id="LED-3" data-name="LED" width="3" height="5" fill="#b6bec6" x="16"/>
        <rect id="LED-4" data-name="LED" width="3" height="5" fill="#b6bec6" x="10"/>
      </g>
      <g id="Valve-3" data-name="Valve">
        <rect id="Fitting-3" data-name="Fitting" width="7" height="4" fill="#b6bec6" x="21" y="105"/>
        <rect id="Bottom-3" data-name="Bottom" width="9" height="63" fill="#d8dce1" x="20" y="42"/>
        <rect id="Top-3" data-name="Top" width="9" height="42" fill="#e5e8eb" x="20"/>
        <circle id="Manual_Override-4" data-name="Manual Override" cx="24.5" cy="25.5" r="3.5" fill="#b6bec6"/>
        <circle id="Manual_Override-5" data-name="Manual Override" cx="24.5" cy="11.5" r="3.5" fill="#b6bec6"/>
        <rect id="LED-5" data-name="LED" width="3" height="5" fill="#b6bec6" x="26"/>
        <rect id="LED-6" data-name="LED" width="3" height="5" fill="#b6bec6" x="20"/>
      </g>
      <g id="Valve-4" data-name="Valve">
        <rect id="Fitting-4" data-name="Fitting" width="7" height="4" fill="#b6bec6" x="31" y="105"/>
        <rect id="Bottom-4" data-name="Bottom" width="9" height="63" fill="#d8dce1" x="30" y="42"/>
        <rect id="Top-4" data-name="Top" width="9" height="42" fill="#e5e8eb" x="30"/>
        <circle id="Manual_Override-6" data-name="Manual Override" cx="34.5" cy="25.5" r="3.5" fill="#b6bec6"/>
        <circle id="Manual_Override-7" data-name="Manual Override" cx="34.5" cy="11.5" r="3.5" fill="#b6bec6"/>
        <rect id="LED-7" data-name="LED" width="3" height="5" fill="#b6bec6" x="36"/>
        <rect id="LED-8" data-name="LED" width="3" height="5" fill="#b6bec6" x="30"/>
      </g>
    </g>
  </g>
</svg>
