<svg xmlns="http://www.w3.org/2000/svg" width="55" height="109" viewBox="0 0 55 109">
  <g id="MPA14-S">
    <rect id="Body" width="55" height="105" fill="#f2f3f5"/>
    <g id="Valves">
      <g id="Valve">
        <rect id="Fitting" width="11" height="4" fill="#b6bec6" x="1" y="105"/>
        <rect id="Bottom" width="13" height="63" fill="#d8dce1" y="42"/>
        <rect id="Top" width="9" height="35" fill="#e5e8eb"/>
        <rect id="Middle" width="13" height="7" fill="#e5e8eb" y="35"/>
        <circle id="Manual_Override" data-name="Manual Override" cx="4.5" cy="25.5" r="3.5" fill="#b6bec6"/>
        <rect id="LED" width="3" height="5" fill="#b6bec6" x="6"/>
        <rect id="LED-2" data-name="LED" width="3" height="5" fill="#b6bec6"/>
      </g>
      <g id="Valve-2" data-name="Valve">
        <rect id="Fitting-2" data-name="Fitting" width="11" height="4" fill="#b6bec6" x="15" y="105"/>
        <rect id="Bottom-2" data-name="Bottom" width="13" height="63" fill="#d8dce1" x="14" y="42"/>
        <rect id="Top-2" data-name="Top" width="9" height="35" fill="#e5e8eb" x="14"/>
        <rect id="Middle-2" data-name="Middle" width="13" height="7" fill="#e5e8eb" x="14" y="35"/>
        <circle id="Manual_Override-2" data-name="Manual Override" cx="18.5" cy="25.5" r="3.5" fill="#b6bec6"/>
        <circle id="Manual_Override-3" data-name="Manual Override" cx="18.5" cy="11.5" r="3.5" fill="#b6bec6"/>
        <rect id="LED-3" data-name="LED" width="3" height="5" fill="#b6bec6" x="20"/>
        <rect id="LED-4" data-name="LED" width="3" height="5" fill="#b6bec6" x="14"/>
      </g>
      <g id="Valve-3" data-name="Valve">
        <rect id="Fitting-3" data-name="Fitting" width="11" height="4" fill="#b6bec6" x="29" y="105"/>
        <rect id="Bottom-3" data-name="Bottom" width="13" height="63" fill="#d8dce1" x="28" y="42"/>
        <rect id="Top-3" data-name="Top" width="9" height="35" fill="#e5e8eb" x="28"/>
        <rect id="Middle-3" data-name="Middle" width="13" height="7" fill="#e5e8eb" x="28" y="35"/>
        <circle id="Manual_Override-4" data-name="Manual Override" cx="32.5" cy="25.5" r="3.5" fill="#b6bec6"/>
        <circle id="Manual_Override-5" data-name="Manual Override" cx="32.5" cy="11.5" r="3.5" fill="#b6bec6"/>
        <rect id="LED-5" data-name="LED" width="3" height="5" fill="#b6bec6" x="34"/>
        <rect id="LED-6" data-name="LED" width="3" height="5" fill="#b6bec6" x="28"/>
      </g>
      <g id="Valve-4" data-name="Valve">
        <rect id="Fitting-4" data-name="Fitting" width="11" height="4" fill="#b6bec6" x="43" y="105"/>
        <rect id="Bottom-4" data-name="Bottom" width="13" height="63" fill="#d8dce1" x="42" y="42"/>
        <rect id="Top-4" data-name="Top" width="9" height="35" fill="#e5e8eb" x="42"/>
        <rect id="Middle-4" data-name="Middle" width="13" height="7" fill="#e5e8eb" x="42" y="35"/>
        <circle id="Manual_Override-6" data-name="Manual Override" cx="46.5" cy="25.5" r="3.5" fill="#b6bec6"/>
        <circle id="Manual_Override-7" data-name="Manual Override" cx="46.5" cy="11.5" r="3.5" fill="#b6bec6"/>
        <rect id="LED-7" data-name="LED" width="3" height="5" fill="#b6bec6" x="48"/>
        <rect id="LED-8" data-name="LED" width="3" height="5" fill="#b6bec6" x="42"/>
      </g>
    </g>
  </g>
</svg>
