<svg xmlns="http://www.w3.org/2000/svg" width="140" height="145" viewBox="0 0 140 145">
  <g id="VABA-S6-1-X5">
    <g id="Valves">
      <g id="Valve">
        <rect id="Fitting" width="10" height="5" fill="#b6bec6" x="76" y="140"/>
        <rect id="Bottom" width="16" height="84" fill="#d8dce1" x="73" y="56"/>
        <rect id="Top" width="16" height="56" fill="#b6bec6" x="73"/>
      </g>
      <g id="Valve-2" data-name="Valve">
        <rect id="Fitting-2" data-name="Fitting" width="10" height="5" fill="#b6bec6" x="93" y="140"/>
        <rect id="Bottom-2" data-name="Bottom" width="16" height="84" fill="#d8dce1" x="90" y="56"/>
        <rect id="Top-2" data-name="Top" width="16" height="56" fill="#b6bec6" x="90"/>
      </g>
      <g id="Valve-3" data-name="Valve">
        <rect id="Fitting-3" data-name="Fitting" width="10" height="5" fill="#b6bec6" x="110" y="140"/>
        <rect id="Bottom-3" data-name="Bottom" width="16" height="84" fill="#d8dce1" x="107" y="56"/>
        <rect id="Top-3" data-name="Top" width="16" height="56" fill="#b6bec6" x="107"/>
      </g>
      <g id="Valve-4" data-name="Valve">
        <rect id="Fitting-4" data-name="Fitting" width="10" height="5" fill="#b6bec6" x="127" y="140"/>
        <rect id="Bottom-4" data-name="Bottom" width="16" height="84" fill="#d8dce1" x="124" y="56"/>
        <rect id="Top-4" data-name="Top" width="16" height="56" fill="#b6bec6" x="124"/>
      </g>
      <g id="Cut_out" data-name="Cut out">
        <path id="Middle" d="M316,2124.145c0,8.778-3.677,23.243-3.6,40.569.076,16.549,4.413,38.436,4.413,50.938,0,28.261-3.363,34.1-3.363,48.493" transform="translate(-208.10799999999995 -2124.145)" fill="none" stroke="#f2f3f5" stroke-width="7"/>
        <path id="Right" d="M316,2124.145c0,8.778-3.677,23.243-3.6,40.569.076,16.549,4.413,38.436,4.413,50.938,0,28.261-3.363,34.1-3.363,48.493" transform="translate(-204.10799999999995 -2124.145)" fill="none" stroke="#b6bec6" stroke-width="1"/>
        <path id="Left" d="M316,2124.145c0,8.778-3.677,23.243-3.6,40.569.076,16.549,4.413,38.436,4.413,50.938,0,28.261-3.363,34.1-3.363,48.493" transform="translate(-212.10799999999995 -2124.145)" fill="none" stroke="#b6bec6" stroke-width="1"/>
      </g>
    </g>
    <rect id="Body" width="72" height="140" fill="#e5e8eb"/>
    <g id="Screws">
      <circle id="Screw" cx="5.5" cy="117.5" r="3.5" fill="#b6bec6"/>
      <circle id="Screw-2" data-name="Screw" cx="5.5" cy="129.5" r="3.5" fill="#b6bec6"/>
      <circle id="Screw-3" data-name="Screw" cx="66.5" cy="117.5" r="3.5" fill="#b6bec6"/>
      <circle id="Screw-4" data-name="Screw" cx="66.5" cy="22.5" r="3.5" fill="#b6bec6"/>
      <circle id="Screw-5" data-name="Screw" cx="5.5" cy="6.5" r="3.5" fill="#b6bec6"/>
      <circle id="Screw-6" data-name="Screw" cx="25.5" cy="10.5" r="3.5" fill="#b6bec6"/>
    </g>
    <g id="LEDs">
      <rect id="LED_PL" width="6" height="2" fill="#b6bec6" data-name="PL" x="46" y="10">
        <title>PL</title>
      </rect>
      <rect id="LED_MD" width="6" height="2" fill="#b6bec6" data-name="MD" x="38" y="10">
        <title>MD</title>
      </rect>
    </g>
    <g id="Slot">
      <path id="Right_Notch" data-name="Right Notch" d="M0,6.085v49c0,3.793,7,11.093,7,11.093V0S0,1.823,0,6.085Z" transform="translate(68.999 110.084) rotate(180)" fill="#d8dce1"/>
      <path id="Left_Notch" data-name="Left Notch" d="M11816,15064.091v-49c0-3.793,7-11.093,7-11.093v66.176S11816,15068.353,11816,15064.091Z" transform="translate(-11813 -14960.092)" fill="#d8dce1"/>
      <g id="Frame" fill="none" stroke="#d8dce1" stroke-width="1">
        <rect width="52" height="109" stroke="none" x="10" y="16"/>
        <rect x="10.5" y="16.5" width="51" height="108" fill="none"/>
      </g>
    </g>
    <rect id="ModulePlaceHolder_disabled" width="50" height="107" fill="none" x="11" y="17"/>
  </g>
</svg>
