<svg xmlns="http://www.w3.org/2000/svg" width="100" height="145" viewBox="0 0 100 145">
  <g id="VABF-CB">
    <g id="Valves">
      <g id="Valve">
        <rect id="Fitting" width="10" height="5" fill="#b6bec6" x="36" y="140"/>
        <rect id="Bottom" width="16" height="84" fill="#d8dce1" x="33" y="56"/>
        <rect id="Top" width="16" height="56" fill="#b6bec6" x="33"/>
      </g>
      <g id="Valve-2" data-name="Valve">
        <rect id="Fitting-2" data-name="Fitting" width="10" height="5" fill="#b6bec6" x="53" y="140"/>
        <rect id="Bottom-2" data-name="Bottom" width="16" height="84" fill="#d8dce1" x="50" y="56"/>
        <rect id="Top-2" data-name="Top" width="16" height="56" fill="#b6bec6" x="50"/>
      </g>
      <g id="Valve-3" data-name="Valve">
        <rect id="Fitting-3" data-name="Fitting" width="10" height="5" fill="#b6bec6" x="70" y="140"/>
        <rect id="Bottom-3" data-name="Bottom" width="16" height="84" fill="#d8dce1" x="67" y="56"/>
        <rect id="Top-3" data-name="Top" width="16" height="56" fill="#b6bec6" x="67"/>
      </g>
      <g id="Valve-4" data-name="Valve">
        <rect id="Fitting-4" data-name="Fitting" width="10" height="5" fill="#b6bec6" x="87" y="140"/>
        <rect id="Bottom-4" data-name="Bottom" width="16" height="84" fill="#d8dce1" x="84" y="56"/>
        <rect id="Top-4" data-name="Top" width="16" height="56" fill="#b6bec6" x="84"/>
      </g>
      <g id="Cut_out" data-name="Cut out">
        <path id="Middle" d="M316,2124.145c0,8.778-3.677,23.243-3.6,40.569.076,16.549,4.413,38.436,4.413,50.938,0,28.261-3.363,34.1-3.363,48.493" transform="translate(-248.10799999999995 -2124.145)" fill="none" stroke="#f2f3f5" stroke-width="7"/>
        <path id="Right" d="M316,2124.145c0,8.778-3.677,23.243-3.6,40.569.076,16.549,4.413,38.436,4.413,50.938,0,28.261-3.363,34.1-3.363,48.493" transform="translate(-244.10799999999995 -2124.145)" fill="none" stroke="#b6bec6" stroke-width="1"/>
        <path id="Left" d="M316,2124.145c0,8.778-3.677,23.243-3.6,40.569.076,16.549,4.413,38.436,4.413,50.938,0,28.261-3.363,34.1-3.363,48.493" transform="translate(-252.10799999999995 -2124.145)" fill="none" stroke="#b6bec6" stroke-width="1"/>
      </g>
    </g>
    <rect id="Fitting-5" data-name="Fitting" width="18" height="5" fill="#b6bec6" x="7" y="140"/>
    <rect id="Body" width="32" height="140" fill="#e5e8eb"/>
    <g id="Screws">
      <circle id="Screw" cx="27.5" cy="133.5" r="3.5" fill="#b6bec6"/>
      <circle id="Screw-2" data-name="Screw" cx="4.5" cy="133.5" r="3.5" fill="#b6bec6"/>
      <circle id="Screw-3" data-name="Screw" cx="4.5" cy="6.5" r="3.5" fill="#b6bec6"/>
      <circle id="Screw-4" data-name="Screw" cx="27.5" cy="6.5" r="3.5" fill="#b6bec6"/>
    </g>
    <circle id="LED" cx="11.0" cy="20.0" r="2" fill="#b6bec6"/>
  </g>
</svg>
