<svg xmlns="http://www.w3.org/2000/svg" width="51" height="109" viewBox="0 0 51 109">
  <g id="VABX-A-BV-S-BBBB">
    <rect id="Body" width="51" height="107" fill="#b6bec6"/>
    <g id="VTUX_Valves_SIze_12" data-name="VTUX Valves SIze 12">
      <g id="Valves">
        <g id="Valves-2" data-name="Valves">
          <g id="Valve">
            <rect id="Fitting" width="10" height="2" fill="#b6bec6" x="1" y="107"/>
            <rect id="Bottom" width="12" height="73" fill="#e5e8eb" y="34"/>
            <rect id="Top" width="12" height="32" fill="#b6bec6" y="2"/>
            <circle id="Screw" cx="6.0" cy="104.0" r="2" fill="#b6bec6"/>
            <line id="Line" x2="11" transform="translate(1917.5 164.471)" fill="none" stroke="#b6bec6" stroke-linecap="square" stroke-width="1"/>
            <circle id="Screw-2" data-name="Screw" cx="6.0" cy="37.0" r="2" fill="#b6bec6"/>
            <g id="Manual_Override" data-name="Manual Override" fill="none" stroke="#f2f3f5" stroke-width="1">
              <circle cx="5.9990000000000006" cy="25.491000000000003" r="2.499" stroke="none"/>
              <circle cx="5.9990000000000006" cy="25.491000000000003" r="1.999" fill="none"/>
            </g>
            <g id="Manual_Override-2" data-name="Manual Override" fill="none" stroke="#f2f3f5" stroke-width="1">
              <circle cx="5.9990000000000006" cy="10.496" r="2.499" stroke="none"/>
              <circle cx="5.9990000000000006" cy="10.496" r="1.999" fill="none"/>
            </g>
            <rect id="LED3" width="3" height="2" fill="#f2f3f5" x="9"/>
            <rect id="LED2" width="2" height="2" fill="#f2f3f5" x="5"/>
            <rect id="LED1" width="3" height="2" fill="#f2f3f5"/>
          </g>
        </g>
        <g id="Valves-3" data-name="Valves">
          <g id="Valve-2" data-name="Valve">
            <rect id="Fitting-2" data-name="Fitting" width="10" height="2" fill="#b6bec6" x="14" y="107"/>
            <rect id="Bottom-2" data-name="Bottom" width="12" height="73" fill="#e5e8eb" x="13" y="34"/>
            <rect id="Top-2" data-name="Top" width="12" height="32" fill="#b6bec6" x="13" y="2"/>
            <circle id="Screw-3" data-name="Screw" cx="19.0" cy="104.0" r="2" fill="#b6bec6"/>
            <line id="Line-2" data-name="Line" x2="11" transform="translate(1917.5 164.471)" fill="none" stroke="#b6bec6" stroke-linecap="square" stroke-width="1"/>
            <circle id="Screw-4" data-name="Screw" cx="19.0" cy="37.0" r="2" fill="#b6bec6"/>
            <g id="Manual_Override-3" data-name="Manual Override" fill="none" stroke="#f2f3f5" stroke-width="1">
              <circle cx="18.999" cy="25.491000000000003" r="2.499" stroke="none"/>
              <circle cx="18.999" cy="25.491000000000003" r="1.999" fill="none"/>
            </g>
            <g id="Manual_Override-4" data-name="Manual Override" fill="none" stroke="#f2f3f5" stroke-width="1">
              <circle cx="18.999" cy="10.496" r="2.499" stroke="none"/>
              <circle cx="18.999" cy="10.496" r="1.999" fill="none"/>
            </g>
            <rect id="LED3-2" data-name="LED3" width="3" height="2" fill="#f2f3f5" x="22"/>
            <rect id="LED2-2" data-name="LED2" width="2" height="2" fill="#f2f3f5" x="18"/>
            <rect id="LED1-2" data-name="LED1" width="3" height="2" fill="#f2f3f5" x="13"/>
          </g>
        </g>
        <g id="Valves-4" data-name="Valves">
          <g id="Valve-3" data-name="Valve">
            <rect id="Fitting-3" data-name="Fitting" width="10" height="2" fill="#b6bec6" x="27" y="107"/>
            <rect id="Bottom-3" data-name="Bottom" width="12" height="73" fill="#e5e8eb" x="26" y="34"/>
            <rect id="Top-3" data-name="Top" width="12" height="32" fill="#b6bec6" x="26" y="2"/>
            <circle id="Screw-5" data-name="Screw" cx="32.0" cy="104.0" r="2" fill="#b6bec6"/>
            <line id="Line-3" data-name="Line" x2="11" transform="translate(1917.5 164.471)" fill="none" stroke="#b6bec6" stroke-linecap="square" stroke-width="1"/>
            <circle id="Screw-6" data-name="Screw" cx="32.0" cy="37.0" r="2" fill="#b6bec6"/>
            <g id="Manual_Override-5" data-name="Manual Override" fill="none" stroke="#f2f3f5" stroke-width="1">
              <circle cx="31.999" cy="25.491000000000003" r="2.499" stroke="none"/>
              <circle cx="31.999" cy="25.491000000000003" r="1.999" fill="none"/>
            </g>
            <g id="Manual_Override-6" data-name="Manual Override" fill="none" stroke="#f2f3f5" stroke-width="1">
              <circle cx="31.999" cy="10.496" r="2.499" stroke="none"/>
              <circle cx="31.999" cy="10.496" r="1.999" fill="none"/>
            </g>
            <rect id="LED3-3" data-name="LED3" width="3" height="2" fill="#f2f3f5" x="35"/>
            <rect id="LED2-3" data-name="LED2" width="2" height="2" fill="#f2f3f5" x="31"/>
            <rect id="LED1-3" data-name="LED1" width="3" height="2" fill="#f2f3f5" x="26"/>
          </g>
        </g>
        <g id="Valves-5" data-name="Valves">
          <g id="Valve-4" data-name="Valve">
            <rect id="Fitting-4" data-name="Fitting" width="10" height="2" fill="#b6bec6" x="40" y="107"/>
            <rect id="Bottom-4" data-name="Bottom" width="12" height="73" fill="#e5e8eb" x="39" y="34"/>
            <rect id="Top-4" data-name="Top" width="12" height="32" fill="#b6bec6" x="39" y="2"/>
            <circle id="Screw-7" data-name="Screw" cx="45.0" cy="104.0" r="2" fill="#b6bec6"/>
            <line id="Line-4" data-name="Line" x2="11" transform="translate(1917.5 164.471)" fill="none" stroke="#b6bec6" stroke-linecap="square" stroke-width="1"/>
            <circle id="Screw-8" data-name="Screw" cx="45.0" cy="37.0" r="2" fill="#b6bec6"/>
            <g id="Manual_Override-7" data-name="Manual Override" fill="none" stroke="#f2f3f5" stroke-width="1">
              <circle cx="44.999" cy="25.491000000000003" r="2.499" stroke="none"/>
              <circle cx="44.999" cy="25.491000000000003" r="1.999" fill="none"/>
            </g>
            <g id="Manual_Override-8" data-name="Manual Override" fill="none" stroke="#f2f3f5" stroke-width="1">
              <circle cx="44.999" cy="10.496" r="2.499" stroke="none"/>
              <circle cx="44.999" cy="10.496" r="1.999" fill="none"/>
            </g>
            <rect id="LED3-4" data-name="LED3" width="3" height="2" fill="#f2f3f5" x="48"/>
            <rect id="LED2-4" data-name="LED2" width="2" height="2" fill="#f2f3f5" x="44"/>
            <rect id="LED1-4" data-name="LED1" width="3" height="2" fill="#f2f3f5" x="39"/>
          </g>
        </g>
      </g>
    </g>
  </g>
</svg>
