<svg xmlns="http://www.w3.org/2000/svg" width="108" height="109" viewBox="0 0 108 109">
  <g id="VABX-A-P-EL-E12-APA">
    <rect id="Body" width="110" height="107" fill="#b6bec6"/>
    <g id="VTUX_Valves_Size_10" data-name="VTUX Valves Size 10">
      <g id="Valve4">
        <rect id="Fitting" width="8" height="2" fill="#b6bec6" x="101" y="107"/>
        <rect id="Bottom" width="10" height="73" fill="#e5e8eb" x="100" y="34"/>
        <rect id="Top" width="10" height="32" fill="#b6bec6" x="100" y="2"/>
        <circle id="Screw" cx="105.0" cy="104.0" r="2" fill="#b6bec6"/>
        <line id="Line" x2="9" transform="translate(1917.5 164.471)" fill="none" stroke="#b6bec6" stroke-linecap="square" stroke-width="1"/>
        <circle id="Screw-2" data-name="Screw" cx="105.0" cy="37.0" r="2" fill="#b6bec6"/>
        <g id="Manual_Override" data-name="Manual Override" fill="none" stroke="#f2f3f5" stroke-width="1">
          <circle cx="104.999" cy="25.491000000000003" r="2.499" stroke="none"/>
          <circle cx="104.999" cy="25.491000000000003" r="1.999" fill="none"/>
        </g>
        <g id="Manual_Override-2" data-name="Manual Override" fill="none" stroke="#f2f3f5" stroke-width="1">
          <circle cx="104.999" cy="10.496" r="2.499" stroke="none"/>
          <circle cx="104.999" cy="10.496" r="1.999" fill="none"/>
        </g>
        <rect id="LED3" width="3" height="2" fill="#f2f3f5" x="107"/>
        <rect id="LED2" width="2" height="2" fill="#f2f3f5" x="104"/>
        <rect id="LED1" width="3" height="2" fill="#f2f3f5" x="100"/>
      </g>
      <g id="Valve3">
        <rect id="Fitting-2" data-name="Fitting" width="8" height="2" fill="#b6bec6" x="90" y="107"/>
        <rect id="Bottom-2" data-name="Bottom" width="10" height="73" fill="#e5e8eb" x="89" y="34"/>
        <rect id="Top-2" data-name="Top" width="10" height="32" fill="#b6bec6" x="89" y="2"/>
        <circle id="Screw-3" data-name="Screw" cx="94.0" cy="104.0" r="2" fill="#b6bec6"/>
        <line id="Line-2" data-name="Line" x2="9" transform="translate(1917.5 164.471)" fill="none" stroke="#b6bec6" stroke-linecap="square" stroke-width="1"/>
        <circle id="Screw-4" data-name="Screw" cx="94.0" cy="37.0" r="2" fill="#b6bec6"/>
        <g id="Manual_Override-3" data-name="Manual Override" fill="none" stroke="#f2f3f5" stroke-width="1">
          <circle cx="93.999" cy="25.491000000000003" r="2.499" stroke="none"/>
          <circle cx="93.999" cy="25.491000000000003" r="1.999" fill="none"/>
        </g>
        <g id="Manual_Override-4" data-name="Manual Override" fill="none" stroke="#f2f3f5" stroke-width="1">
          <circle cx="93.999" cy="10.496" r="2.499" stroke="none"/>
          <circle cx="93.999" cy="10.496" r="1.999" fill="none"/>
        </g>
        <rect id="LED3-2" data-name="LED3" width="3" height="2" fill="#f2f3f5" x="96"/>
        <rect id="LED2-2" data-name="LED2" width="2" height="2" fill="#f2f3f5" x="93"/>
        <rect id="LED1-2" data-name="LED1" width="3" height="2" fill="#f2f3f5" x="89"/>
      </g>
      <g id="Valve2">
        <rect id="Fitting-3" data-name="Fitting" width="8" height="2" fill="#b6bec6" x="79" y="107"/>
        <rect id="Bottom-3" data-name="Bottom" width="10" height="73" fill="#e5e8eb" x="78" y="34"/>
        <rect id="Top-3" data-name="Top" width="10" height="32" fill="#b6bec6" x="78" y="2"/>
        <circle id="Screw-5" data-name="Screw" cx="83.0" cy="104.0" r="2" fill="#b6bec6"/>
        <line id="Line-3" data-name="Line" x2="9" transform="translate(1917.5 164.471)" fill="none" stroke="#b6bec6" stroke-linecap="square" stroke-width="1"/>
        <circle id="Screw-6" data-name="Screw" cx="83.0" cy="37.0" r="2" fill="#b6bec6"/>
        <g id="Manual_Override-5" data-name="Manual Override" fill="none" stroke="#f2f3f5" stroke-width="1">
          <circle cx="82.999" cy="25.491000000000003" r="2.499" stroke="none"/>
          <circle cx="82.999" cy="25.491000000000003" r="1.999" fill="none"/>
        </g>
        <g id="Manual_Override-6" data-name="Manual Override" fill="none" stroke="#f2f3f5" stroke-width="1">
          <circle cx="82.999" cy="10.496" r="2.499" stroke="none"/>
          <circle cx="82.999" cy="10.496" r="1.999" fill="none"/>
        </g>
        <rect id="LED3-3" data-name="LED3" width="3" height="2" fill="#f2f3f5" x="85"/>
        <rect id="LED2-3" data-name="LED2" width="2" height="2" fill="#f2f3f5" x="82"/>
        <rect id="LED1-3" data-name="LED1" width="3" height="2" fill="#f2f3f5" x="78"/>
      </g>
      <g id="Valve1">
        <rect id="Fitting-4" data-name="Fitting" width="8" height="2" fill="#b6bec6" x="68" y="107"/>
        <rect id="Bottom-4" data-name="Bottom" width="10" height="73" fill="#e5e8eb" x="67" y="34"/>
        <rect id="Top-4" data-name="Top" width="10" height="32" fill="#b6bec6" x="67" y="2"/>
        <circle id="Screw-7" data-name="Screw" cx="72.0" cy="104.0" r="2" fill="#b6bec6"/>
        <line id="Line-4" data-name="Line" x2="9" transform="translate(1917.5 164.471)" fill="none" stroke="#b6bec6" stroke-linecap="square" stroke-width="1"/>
        <circle id="Screw-8" data-name="Screw" cx="72.0" cy="37.0" r="2" fill="#b6bec6"/>
        <g id="Manual_Override-7" data-name="Manual Override" fill="none" stroke="#f2f3f5" stroke-width="1">
          <circle cx="71.999" cy="25.491000000000003" r="2.499" stroke="none"/>
          <circle cx="71.999" cy="25.491000000000003" r="1.999" fill="none"/>
        </g>
        <g id="Manual_Override-8" data-name="Manual Override" fill="none" stroke="#f2f3f5" stroke-width="1">
          <circle cx="71.999" cy="10.496" r="2.499" stroke="none"/>
          <circle cx="71.999" cy="10.496" r="1.999" fill="none"/>
        </g>
        <rect id="LED3-4" data-name="LED3" width="3" height="2" fill="#f2f3f5" x="74"/>
        <rect id="LED2-4" data-name="LED2" width="2" height="2" fill="#f2f3f5" x="71"/>
        <rect id="LED1-4" data-name="LED1" width="3" height="2" fill="#f2f3f5" x="67"/>
      </g>
    </g>
    <g id="VTUX_Valves_Size_10-2" data-name="VTUX Valves Size 10">
      <g id="Valve4-2" data-name="Valve4">
        <rect id="Fitting-5" data-name="Fitting" width="8" height="2" fill="#b6bec6" x="57" y="107"/>
        <rect id="Bottom-5" data-name="Bottom" width="10" height="73" fill="#e5e8eb" x="56" y="34"/>
        <rect id="Top-5" data-name="Top" width="10" height="32" fill="#b6bec6" x="56" y="2"/>
        <circle id="Screw-9" data-name="Screw" cx="61.0" cy="104.0" r="2" fill="#b6bec6"/>
        <line id="Line-5" data-name="Line" x2="9" transform="translate(1917.5 164.471)" fill="none" stroke="#b6bec6" stroke-linecap="square" stroke-width="1"/>
        <circle id="Screw-10" data-name="Screw" cx="61.0" cy="37.0" r="2" fill="#b6bec6"/>
        <g id="Manual_Override-9" data-name="Manual Override" fill="none" stroke="#f2f3f5" stroke-width="1">
          <circle cx="60.999" cy="25.491000000000003" r="2.499" stroke="none"/>
          <circle cx="60.999" cy="25.491000000000003" r="1.999" fill="none"/>
        </g>
        <g id="Manual_Override-10" data-name="Manual Override" fill="none" stroke="#f2f3f5" stroke-width="1">
          <circle cx="60.999" cy="10.496" r="2.499" stroke="none"/>
          <circle cx="60.999" cy="10.496" r="1.999" fill="none"/>
        </g>
        <rect id="LED3-5" data-name="LED3" width="3" height="2" fill="#f2f3f5" x="63"/>
        <rect id="LED2-5" data-name="LED2" width="2" height="2" fill="#f2f3f5" x="60"/>
        <rect id="LED1-5" data-name="LED1" width="3" height="2" fill="#f2f3f5" x="56"/>
      </g>
      <g id="Valve3-2" data-name="Valve3">
        <rect id="Fitting-6" data-name="Fitting" width="8" height="2" fill="#b6bec6" x="46" y="107"/>
        <rect id="Bottom-6" data-name="Bottom" width="10" height="73" fill="#e5e8eb" x="45" y="34"/>
        <rect id="Top-6" data-name="Top" width="10" height="32" fill="#b6bec6" x="45" y="2"/>
        <circle id="Screw-11" data-name="Screw" cx="50.0" cy="104.0" r="2" fill="#b6bec6"/>
        <line id="Line-6" data-name="Line" x2="9" transform="translate(1917.5 164.471)" fill="none" stroke="#b6bec6" stroke-linecap="square" stroke-width="1"/>
        <circle id="Screw-12" data-name="Screw" cx="50.0" cy="37.0" r="2" fill="#b6bec6"/>
        <g id="Manual_Override-11" data-name="Manual Override" fill="none" stroke="#f2f3f5" stroke-width="1">
          <circle cx="49.999" cy="25.491000000000003" r="2.499" stroke="none"/>
          <circle cx="49.999" cy="25.491000000000003" r="1.999" fill="none"/>
        </g>
        <g id="Manual_Override-12" data-name="Manual Override" fill="none" stroke="#f2f3f5" stroke-width="1">
          <circle cx="49.999" cy="10.496" r="2.499" stroke="none"/>
          <circle cx="49.999" cy="10.496" r="1.999" fill="none"/>
        </g>
        <rect id="LED3-6" data-name="LED3" width="3" height="2" fill="#f2f3f5" x="52"/>
        <rect id="LED2-6" data-name="LED2" width="2" height="2" fill="#f2f3f5" x="49"/>
        <rect id="LED1-6" data-name="LED1" width="3" height="2" fill="#f2f3f5" x="45"/>
      </g>
      <g id="Valve2-2" data-name="Valve2">
        <rect id="Fitting-7" data-name="Fitting" width="8" height="2" fill="#b6bec6" x="35" y="107"/>
        <rect id="Bottom-7" data-name="Bottom" width="10" height="73" fill="#e5e8eb" x="34" y="34"/>
        <rect id="Top-7" data-name="Top" width="10" height="32" fill="#b6bec6" x="34" y="2"/>
        <circle id="Screw-13" data-name="Screw" cx="39.0" cy="104.0" r="2" fill="#b6bec6"/>
        <line id="Line-7" data-name="Line" x2="9" transform="translate(1917.5 164.471)" fill="none" stroke="#b6bec6" stroke-linecap="square" stroke-width="1"/>
        <circle id="Screw-14" data-name="Screw" cx="39.0" cy="37.0" r="2" fill="#b6bec6"/>
        <g id="Manual_Override-13" data-name="Manual Override" fill="none" stroke="#f2f3f5" stroke-width="1">
          <circle cx="38.999" cy="25.491000000000003" r="2.499" stroke="none"/>
          <circle cx="38.999" cy="25.491000000000003" r="1.999" fill="none"/>
        </g>
        <g id="Manual_Override-14" data-name="Manual Override" fill="none" stroke="#f2f3f5" stroke-width="1">
          <circle cx="38.999" cy="10.496" r="2.499" stroke="none"/>
          <circle cx="38.999" cy="10.496" r="1.999" fill="none"/>
        </g>
        <rect id="LED3-7" data-name="LED3" width="3" height="2" fill="#f2f3f5" x="41"/>
        <rect id="LED2-7" data-name="LED2" width="2" height="2" fill="#f2f3f5" x="38"/>
        <rect id="LED1-7" data-name="LED1" width="3" height="2" fill="#f2f3f5" x="34"/>
      </g>
      <g id="Valve1-2" data-name="Valve1">
        <rect id="Fitting-8" data-name="Fitting" width="8" height="2" fill="#b6bec6" x="24" y="107"/>
        <rect id="Bottom-8" data-name="Bottom" width="10" height="73" fill="#e5e8eb" x="23" y="34"/>
        <rect id="Top-8" data-name="Top" width="10" height="32" fill="#b6bec6" x="23" y="2"/>
        <circle id="Screw-15" data-name="Screw" cx="28.0" cy="104.0" r="2" fill="#b6bec6"/>
        <line id="Line-8" data-name="Line" x2="9" transform="translate(1917.5 164.471)" fill="none" stroke="#b6bec6" stroke-linecap="square" stroke-width="1"/>
        <circle id="Screw-16" data-name="Screw" cx="28.0" cy="37.0" r="2" fill="#b6bec6"/>
        <g id="Manual_Override-15" data-name="Manual Override" fill="none" stroke="#f2f3f5" stroke-width="1">
          <circle cx="27.999" cy="25.491000000000003" r="2.499" stroke="none"/>
          <circle cx="27.999" cy="25.491000000000003" r="1.999" fill="none"/>
        </g>
        <g id="Manual_Override-16" data-name="Manual Override" fill="none" stroke="#f2f3f5" stroke-width="1">
          <circle cx="27.999" cy="10.496" r="2.499" stroke="none"/>
          <circle cx="27.999" cy="10.496" r="1.999" fill="none"/>
        </g>
        <rect id="LED3-8" data-name="LED3" width="3" height="2" fill="#f2f3f5" x="30"/>
        <rect id="LED2-8" data-name="LED2" width="2" height="2" fill="#f2f3f5" x="27"/>
        <rect id="LED1-8" data-name="LED1" width="3" height="2" fill="#f2f3f5" x="23"/>
      </g>
    </g>
    <g id="Pneumatic_Interface" data-name="Pneumatic Interface">
      <rect id="Fitting-9" data-name="Fitting" width="18" height="2" fill="#b6bec6" x="2" y="107"/>
      <rect id="Cover" width="22" height="107" fill="#e5e8eb"/>
    </g>
    <g id="LEDs">
      <rect id="LED_EL" width="6" height="2" fill="#b6bec6" data-name="EL" x="10" y="18">
        <title>EL</title>
      </rect>
      <rect id="LED_MP" width="6" height="2" fill="#b6bec6" data-name="MP" x="10" y="14">
        <title>MP</title>
      </rect>
    </g>
    <g id="Cut_out" data-name="Cut out">
      <path id="Middle" d="M316.5,2124.645c0,6.709-4.079,17.329-4,30.571.076,12.648,4,29.168,4,38.724,0,21.6-3,26.705-3,37.7" transform="translate(-248 -2124.645)" fill="none" stroke="#f2f3f5" stroke-width="7"/>
      <path id="Right" d="M316.5,2124.645c0,6.709-4.079,17.329-4,30.571.076,12.648,4,29.168,4,38.724,0,21.6-3,26.705-3,37.7" transform="translate(-244 -2124.645)" fill="none" stroke="#b6bec6" stroke-width="1"/>
      <path id="Left" d="M316.5,2124.645c0,6.709-4.079,17.329-4,30.571.076,12.648,4,29.168,4,38.724,0,21.6-3,26.705-3,37.7" transform="translate(-252 -2124.645)" fill="none" stroke="#b6bec6" stroke-width="1"/>
    </g>
  </g>
</svg>
