<svg xmlns="http://www.w3.org/2000/svg" width="154.09" height="109" viewBox="0 0 154.09 109">
  <g id="VABX-A-P-EL-E12-CTED-MPM8">
    <rect id="Base" width="153.911" height="107" fill="#b6bec6" x="0.0009999999999998899"/>
    <g id="Right_Endplate" data-name="Right Endplate">
      <rect id="Fitting" width="8" height="2" fill="#b6bec6" x="140.912" y="105"/>
      <rect id="Body" width="16" height="107" fill="#e5e8eb" x="137.912"/>
      <path id="Lower_Contour" data-name="Lower Contour" d="M-11076.553-14198l-11.215,16.9a38.423,38.423,0,0,0-2.059,4.917,21.549,21.549,0,0,0-.727,4.45v32.73h14v-58.7" transform="translate(11230.642 14246)" fill="#d8dce1"/>
      <path id="Upper_Contour" data-name="Upper Contour" d="M-11076.552-14177.662l-11.216-5.848a14.35,14.35,0,0,1-2.058-1.7,3.275,3.275,0,0,1-.727-1.541V-14198h14v20.236" transform="translate(11230.641 14198)" fill="#d8dce1"/>
    </g>
    <g id="Festo_Logo" data-name="Festo Logo">
      <path id="F" d="M.072,2.12A.072.072,0,0,1,0,2.049V.071A.072.072,0,0,1,.072,0H2.1a.072.072,0,0,1,.072.071V.354A.072.072,0,0,1,2.1.424H.651A.072.072,0,0,0,.578.495V.778A.072.072,0,0,0,.651.848h1.3a.072.072,0,0,1,.072.071V1.2a.071.071,0,0,1-.072.07H.651a.072.072,0,0,0-.072.071v.706a.072.072,0,0,1-.072.071Z" transform="translate(138.912 32)" fill="#0091dc"/>
      <path id="E" d="M0,.071A.072.072,0,0,1,.072,0H2.241a.072.072,0,0,1,.072.071V.354a.072.072,0,0,1-.072.071H.651A.071.071,0,0,0,.578.495V.778A.072.072,0,0,0,.651.848H2.1a.072.072,0,0,1,.072.071V1.2a.071.071,0,0,1-.072.07H.651a.072.072,0,0,0-.072.071v.282A.072.072,0,0,0,.651,1.7h1.59a.072.072,0,0,1,.072.071v.282a.072.072,0,0,1-.072.071H.072A.072.072,0,0,1,0,2.049Z" transform="translate(141.225 32)" fill="#0091dc"/>
      <path id="S" d="M0,.848a.429.429,0,0,0,.434.424H1.59a.143.143,0,0,1,.145.142v.141A.143.143,0,0,1,1.59,1.7H.65a.072.072,0,0,1-.072-.071.072.072,0,0,0-.072-.071H.072A.072.072,0,0,0,0,1.625V1.7a.429.429,0,0,0,.434.424H1.88A.429.429,0,0,0,2.313,1.7V1.272A.429.429,0,0,0,1.88.848H.723A.143.143,0,0,1,.578.707V.565A.143.143,0,0,1,.723.424h.939a.071.071,0,0,1,.073.071.071.071,0,0,0,.072.071h.434A.071.071,0,0,0,2.313.495V.424A.429.429,0,0,0,1.88,0H.434A.429.429,0,0,0,0,.424Z" transform="translate(143.683 32)" fill="#0091dc"/>
      <path id="T" d="M0,.071A.072.072,0,0,1,.073,0H2.241a.072.072,0,0,1,.073.071V.354a.072.072,0,0,1-.073.071H1.518a.071.071,0,0,0-.072.071V2.049a.072.072,0,0,1-.073.071H.94a.072.072,0,0,1-.073-.071V.495A.071.071,0,0,0,.8.424H.073A.072.072,0,0,1,0,.354V.071Z" transform="translate(146.14100000000002 32)" fill="#0091dc"/>
      <path id="O" d="M1.85,2.126H.427a.427.427,0,0,1-.393-.26A.421.421,0,0,1,0,1.7V.425a.424.424,0,0,1,.125-.3A.426.426,0,0,1,.427,0H1.85a.425.425,0,0,1,.427.425V1.7a.426.426,0,0,1-.427.425ZM.712.425a.142.142,0,0,0-.1.041.14.14,0,0,0-.042.1v.992A.142.142,0,0,0,.712,1.7h.854a.142.142,0,0,0,.142-.142V.567a.14.14,0,0,0-.042-.1.142.142,0,0,0-.1-.041Z" transform="translate(148.63500000000002 32)" fill="#0091dc"/>
    </g>
    <g id="VTUX_Valves_Size_10" data-name="VTUX Valves Size 10">
      <g id="Valve4">
        <rect id="Fitting-2" data-name="Fitting" width="8" height="2" fill="#b6bec6" x="127.91200000000003" y="107"/>
        <rect id="Bottom" width="10" height="73" fill="#e5e8eb" x="126.91200000000003" y="34"/>
        <rect id="Top" width="10" height="32" fill="#b6bec6" x="126.91200000000003" y="2"/>
        <circle id="Screw" cx="131.91200000000003" cy="104.0" r="2" fill="#b6bec6"/>
        <line id="Line" x2="9" transform="translate(1917.5 164.471)" fill="none" stroke="#b6bec6" stroke-linecap="square" stroke-width="1"/>
        <circle id="Screw-2" data-name="Screw" cx="131.91200000000003" cy="37.0" r="2" fill="#b6bec6"/>
        <g id="Manual_Override" data-name="Manual Override" fill="none" stroke="#f2f3f5" stroke-width="1">
          <circle cx="131.91100000000003" cy="25.491000000000003" r="2.499" stroke="none"/>
          <circle cx="131.91100000000003" cy="25.491000000000003" r="1.999" fill="none"/>
        </g>
        <g id="Manual_Override-2" data-name="Manual Override" fill="none" stroke="#f2f3f5" stroke-width="1">
          <circle cx="131.91100000000003" cy="10.496" r="2.499" stroke="none"/>
          <circle cx="131.91100000000003" cy="10.496" r="1.999" fill="none"/>
        </g>
        <rect id="LED3" width="3" height="2" fill="#f2f3f5" x="133.91200000000003"/>
        <rect id="LED2" width="2" height="2" fill="#f2f3f5" x="130.91200000000003"/>
        <rect id="LED1" width="3" height="2" fill="#f2f3f5" x="126.91200000000003"/>
      </g>
      <g id="Valve3">
        <rect id="Fitting-3" data-name="Fitting" width="8" height="2" fill="#b6bec6" x="116.91200000000003" y="107"/>
        <rect id="Bottom-2" data-name="Bottom" width="10" height="73" fill="#e5e8eb" x="115.91200000000003" y="34"/>
        <rect id="Top-2" data-name="Top" width="10" height="32" fill="#b6bec6" x="115.91200000000003" y="2"/>
        <circle id="Screw-3" data-name="Screw" cx="120.91200000000003" cy="104.0" r="2" fill="#b6bec6"/>
        <line id="Line-2" data-name="Line" x2="9" transform="translate(1917.5 164.471)" fill="none" stroke="#b6bec6" stroke-linecap="square" stroke-width="1"/>
        <circle id="Screw-4" data-name="Screw" cx="120.91200000000003" cy="37.0" r="2" fill="#b6bec6"/>
        <g id="Manual_Override-3" data-name="Manual Override" fill="none" stroke="#f2f3f5" stroke-width="1">
          <circle cx="120.91100000000003" cy="25.491000000000003" r="2.499" stroke="none"/>
          <circle cx="120.91100000000003" cy="25.491000000000003" r="1.999" fill="none"/>
        </g>
        <g id="Manual_Override-4" data-name="Manual Override" fill="none" stroke="#f2f3f5" stroke-width="1">
          <circle cx="120.91100000000003" cy="10.496" r="2.499" stroke="none"/>
          <circle cx="120.91100000000003" cy="10.496" r="1.999" fill="none"/>
        </g>
        <rect id="LED3-2" data-name="LED3" width="3" height="2" fill="#f2f3f5" x="122.91200000000003"/>
        <rect id="LED2-2" data-name="LED2" width="2" height="2" fill="#f2f3f5" x="119.91200000000003"/>
        <rect id="LED1-2" data-name="LED1" width="3" height="2" fill="#f2f3f5" x="115.91200000000003"/>
      </g>
      <g id="Valve2">
        <rect id="Fitting-4" data-name="Fitting" width="8" height="2" fill="#b6bec6" x="105.91200000000003" y="107"/>
        <rect id="Bottom-3" data-name="Bottom" width="10" height="73" fill="#e5e8eb" x="104.91200000000003" y="34"/>
        <rect id="Top-3" data-name="Top" width="10" height="32" fill="#b6bec6" x="104.91200000000003" y="2"/>
        <circle id="Screw-5" data-name="Screw" cx="109.91200000000003" cy="104.0" r="2" fill="#b6bec6"/>
        <line id="Line-3" data-name="Line" x2="9" transform="translate(1917.5 164.471)" fill="none" stroke="#b6bec6" stroke-linecap="square" stroke-width="1"/>
        <circle id="Screw-6" data-name="Screw" cx="109.91200000000003" cy="37.0" r="2" fill="#b6bec6"/>
        <g id="Manual_Override-5" data-name="Manual Override" fill="none" stroke="#f2f3f5" stroke-width="1">
          <circle cx="109.91100000000003" cy="25.491000000000003" r="2.499" stroke="none"/>
          <circle cx="109.91100000000003" cy="25.491000000000003" r="1.999" fill="none"/>
        </g>
        <g id="Manual_Override-6" data-name="Manual Override" fill="none" stroke="#f2f3f5" stroke-width="1">
          <circle cx="109.91100000000003" cy="10.496" r="2.499" stroke="none"/>
          <circle cx="109.91100000000003" cy="10.496" r="1.999" fill="none"/>
        </g>
        <rect id="LED3-3" data-name="LED3" width="3" height="2" fill="#f2f3f5" x="111.91200000000003"/>
        <rect id="LED2-3" data-name="LED2" width="2" height="2" fill="#f2f3f5" x="108.91200000000003"/>
        <rect id="LED1-3" data-name="LED1" width="3" height="2" fill="#f2f3f5" x="104.91200000000003"/>
      </g>
      <g id="Valve1">
        <rect id="Fitting-5" data-name="Fitting" width="8" height="2" fill="#b6bec6" x="94.91200000000003" y="107"/>
        <rect id="Bottom-4" data-name="Bottom" width="10" height="73" fill="#e5e8eb" x="93.91200000000003" y="34"/>
        <rect id="Top-4" data-name="Top" width="10" height="32" fill="#b6bec6" x="93.91200000000003" y="2"/>
        <circle id="Screw-7" data-name="Screw" cx="98.91200000000003" cy="104.0" r="2" fill="#b6bec6"/>
        <line id="Line-4" data-name="Line" x2="9" transform="translate(1917.5 164.471)" fill="none" stroke="#b6bec6" stroke-linecap="square" stroke-width="1"/>
        <circle id="Screw-8" data-name="Screw" cx="98.91200000000003" cy="37.0" r="2" fill="#b6bec6"/>
        <g id="Manual_Override-7" data-name="Manual Override" fill="none" stroke="#f2f3f5" stroke-width="1">
          <circle cx="98.91100000000003" cy="25.491000000000003" r="2.499" stroke="none"/>
          <circle cx="98.91100000000003" cy="25.491000000000003" r="1.999" fill="none"/>
        </g>
        <g id="Manual_Override-8" data-name="Manual Override" fill="none" stroke="#f2f3f5" stroke-width="1">
          <circle cx="98.91100000000003" cy="10.496" r="2.499" stroke="none"/>
          <circle cx="98.91100000000003" cy="10.496" r="1.999" fill="none"/>
        </g>
        <rect id="LED3-4" data-name="LED3" width="3" height="2" fill="#f2f3f5" x="100.91200000000003"/>
        <rect id="LED2-4" data-name="LED2" width="2" height="2" fill="#f2f3f5" x="97.91200000000003"/>
        <rect id="LED1-4" data-name="LED1" width="3" height="2" fill="#f2f3f5" x="93.91200000000003"/>
      </g>
    </g>
    <g id="VTUX_Valves_Size_10-2" data-name="VTUX Valves Size 10">
      <g id="Valve4-2" data-name="Valve4">
        <rect id="Fitting-6" data-name="Fitting" width="8" height="2" fill="#b6bec6" x="83.91200000000003" y="107"/>
        <rect id="Bottom-5" data-name="Bottom" width="10" height="73" fill="#e5e8eb" x="82.91200000000003" y="34"/>
        <rect id="Top-5" data-name="Top" width="10" height="32" fill="#b6bec6" x="82.91200000000003" y="2"/>
        <circle id="Screw-9" data-name="Screw" cx="87.91200000000003" cy="104.0" r="2" fill="#b6bec6"/>
        <line id="Line-5" data-name="Line" x2="9" transform="translate(1917.5 164.471)" fill="none" stroke="#b6bec6" stroke-linecap="square" stroke-width="1"/>
        <circle id="Screw-10" data-name="Screw" cx="87.91200000000003" cy="37.0" r="2" fill="#b6bec6"/>
        <g id="Manual_Override-9" data-name="Manual Override" fill="none" stroke="#f2f3f5" stroke-width="1">
          <circle cx="87.91100000000003" cy="25.491000000000003" r="2.499" stroke="none"/>
          <circle cx="87.91100000000003" cy="25.491000000000003" r="1.999" fill="none"/>
        </g>
        <g id="Manual_Override-10" data-name="Manual Override" fill="none" stroke="#f2f3f5" stroke-width="1">
          <circle cx="87.91100000000003" cy="10.496" r="2.499" stroke="none"/>
          <circle cx="87.91100000000003" cy="10.496" r="1.999" fill="none"/>
        </g>
        <rect id="LED3-5" data-name="LED3" width="3" height="2" fill="#f2f3f5" x="89.91200000000003"/>
        <rect id="LED2-5" data-name="LED2" width="2" height="2" fill="#f2f3f5" x="86.91200000000003"/>
        <rect id="LED1-5" data-name="LED1" width="3" height="2" fill="#f2f3f5" x="82.91200000000003"/>
      </g>
      <g id="Valve3-2" data-name="Valve3">
        <rect id="Fitting-7" data-name="Fitting" width="8" height="2" fill="#b6bec6" x="72.91200000000003" y="107"/>
        <rect id="Bottom-6" data-name="Bottom" width="10" height="73" fill="#e5e8eb" x="71.91200000000003" y="34"/>
        <rect id="Top-6" data-name="Top" width="10" height="32" fill="#b6bec6" x="71.91200000000003" y="2"/>
        <circle id="Screw-11" data-name="Screw" cx="76.91200000000003" cy="104.0" r="2" fill="#b6bec6"/>
        <line id="Line-6" data-name="Line" x2="9" transform="translate(1917.5 164.471)" fill="none" stroke="#b6bec6" stroke-linecap="square" stroke-width="1"/>
        <circle id="Screw-12" data-name="Screw" cx="76.91200000000003" cy="37.0" r="2" fill="#b6bec6"/>
        <g id="Manual_Override-11" data-name="Manual Override" fill="none" stroke="#f2f3f5" stroke-width="1">
          <circle cx="76.91100000000003" cy="25.491000000000003" r="2.499" stroke="none"/>
          <circle cx="76.91100000000003" cy="25.491000000000003" r="1.999" fill="none"/>
        </g>
        <g id="Manual_Override-12" data-name="Manual Override" fill="none" stroke="#f2f3f5" stroke-width="1">
          <circle cx="76.91100000000003" cy="10.496" r="2.499" stroke="none"/>
          <circle cx="76.91100000000003" cy="10.496" r="1.999" fill="none"/>
        </g>
        <rect id="LED3-6" data-name="LED3" width="3" height="2" fill="#f2f3f5" x="78.91200000000003"/>
        <rect id="LED2-6" data-name="LED2" width="2" height="2" fill="#f2f3f5" x="75.91200000000003"/>
        <rect id="LED1-6" data-name="LED1" width="3" height="2" fill="#f2f3f5" x="71.91200000000003"/>
      </g>
      <g id="Valve2-2" data-name="Valve2">
        <rect id="Fitting-8" data-name="Fitting" width="8" height="2" fill="#b6bec6" x="61.912000000000035" y="107"/>
        <rect id="Bottom-7" data-name="Bottom" width="10" height="73" fill="#e5e8eb" x="60.912000000000035" y="34"/>
        <rect id="Top-7" data-name="Top" width="10" height="32" fill="#b6bec6" x="60.912000000000035" y="2"/>
        <circle id="Screw-13" data-name="Screw" cx="65.91200000000003" cy="104.0" r="2" fill="#b6bec6"/>
        <line id="Line-7" data-name="Line" x2="9" transform="translate(1917.5 164.471)" fill="none" stroke="#b6bec6" stroke-linecap="square" stroke-width="1"/>
        <circle id="Screw-14" data-name="Screw" cx="65.91200000000003" cy="37.0" r="2" fill="#b6bec6"/>
        <g id="Manual_Override-13" data-name="Manual Override" fill="none" stroke="#f2f3f5" stroke-width="1">
          <circle cx="65.91100000000003" cy="25.491000000000003" r="2.499" stroke="none"/>
          <circle cx="65.91100000000003" cy="25.491000000000003" r="1.999" fill="none"/>
        </g>
        <g id="Manual_Override-14" data-name="Manual Override" fill="none" stroke="#f2f3f5" stroke-width="1">
          <circle cx="65.91100000000003" cy="10.496" r="2.499" stroke="none"/>
          <circle cx="65.91100000000003" cy="10.496" r="1.999" fill="none"/>
        </g>
        <rect id="LED3-7" data-name="LED3" width="3" height="2" fill="#f2f3f5" x="67.91200000000003"/>
        <rect id="LED2-7" data-name="LED2" width="2" height="2" fill="#f2f3f5" x="64.91200000000003"/>
        <rect id="LED1-7" data-name="LED1" width="3" height="2" fill="#f2f3f5" x="60.912000000000035"/>
      </g>
      <g id="Valve1-2" data-name="Valve1">
        <rect id="Fitting-9" data-name="Fitting" width="8" height="2" fill="#b6bec6" x="50.912000000000035" y="107"/>
        <rect id="Bottom-8" data-name="Bottom" width="10" height="73" fill="#e5e8eb" x="49.912000000000035" y="34"/>
        <rect id="Top-8" data-name="Top" width="10" height="32" fill="#b6bec6" x="49.912000000000035" y="2"/>
        <circle id="Screw-15" data-name="Screw" cx="54.912000000000035" cy="104.0" r="2" fill="#b6bec6"/>
        <line id="Line-8" data-name="Line" x2="9" transform="translate(1917.5 164.471)" fill="none" stroke="#b6bec6" stroke-linecap="square" stroke-width="1"/>
        <circle id="Screw-16" data-name="Screw" cx="54.912000000000035" cy="37.0" r="2" fill="#b6bec6"/>
        <g id="Manual_Override-15" data-name="Manual Override" fill="none" stroke="#f2f3f5" stroke-width="1">
          <circle cx="54.91100000000004" cy="25.491000000000003" r="2.499" stroke="none"/>
          <circle cx="54.91100000000004" cy="25.491000000000003" r="1.999" fill="none"/>
        </g>
        <g id="Manual_Override-16" data-name="Manual Override" fill="none" stroke="#f2f3f5" stroke-width="1">
          <circle cx="54.91100000000004" cy="10.496" r="2.499" stroke="none"/>
          <circle cx="54.91100000000004" cy="10.496" r="1.999" fill="none"/>
        </g>
        <rect id="LED3-8" data-name="LED3" width="3" height="2" fill="#f2f3f5" x="56.912000000000035"/>
        <rect id="LED2-8" data-name="LED2" width="2" height="2" fill="#f2f3f5" x="53.912000000000035"/>
        <rect id="LED1-8" data-name="LED1" width="3" height="2" fill="#f2f3f5" x="49.912000000000035"/>
      </g>
    </g>
    <g id="Cut_out" data-name="Cut out">
      <path id="Middle" d="M316.5,2124.645c0,6.709-4.079,17.329-4,30.571.076,12.648,4,29.168,4,38.724,0,21.6-3,26.705-3,37.7" transform="translate(-220.088 -2124.645)" fill="none" stroke="#f2f3f5" stroke-width="7"/>
      <path id="Right" d="M316.5,2124.645c0,6.709-4.079,17.329-4,30.571.076,12.648,4,29.168,4,38.724,0,21.6-3,26.705-3,37.7" transform="translate(-216.088 -2124.645)" fill="none" stroke="#b6bec6" stroke-width="1"/>
      <path id="Left" d="M316.5,2124.645c0,6.709-4.079,17.329-4,30.571.076,12.648,4,29.168,4,38.724,0,21.6-3,26.705-3,37.7" transform="translate(-224.088 -2124.645)" fill="none" stroke="#b6bec6" stroke-width="1"/>
    </g>
    <g id="Pneumatic_Supply" data-name="Pneumatic Supply">
      <rect id="Fitting-10" data-name="Fitting" width="18" height="2" fill="#b6bec6" x="29.000999999999998" y="107"/>
      <rect id="Cover" width="22" height="107" fill="#e5e8eb" x="27.000999999999998"/>
    </g>
    <g id="CTED_Base" data-name="CTED Base">
      <path id="Body-2" data-name="Body" d="M11818.983,13642v-107h6.733l1.641,8.731h8.892c0-.007.376-2,.773-4.107.331-1.762.685-3.638.87-4.622h7.09v107h-26Z" transform="translate(-11818.982 -13534.998)" fill="#d8dce1"/>
      <path id="Contour" d="M12.408-13.144-.685-3.972a9.272,9.272,0,0,0-4.1,7.28s.245,26.081,0,31.558c-.285,6.35-4.981,14.775-5.965,17.367.05-.159.011-.046-.012.044a21.775,21.775,0,0,0-.386,4.471V84.856h23.5v-98" transform="translate(13.591999999999999 22.146)" fill="#e5e8eb"/>
    </g>
    <g id="Connectors">
      <g id="XF2_Out" data-name="XF2 Out">
        <g id="Left-2" data-name="Left">
          <circle id="M8" cx="13.001999999999999" cy="97.999" r="4" fill="#ffd600" stroke="#ffd600" stroke-width="2"/>
        </g>
        <title>XF2 Out</title>
      </g>
      <g id="XF1_In" data-name="XF1 In">
        <g id="Left-3" data-name="Left">
          <circle id="M8-2" data-name="M8" cx="13.001999999999999" cy="85.999" r="4" fill="#ffd600" stroke="#ffd600" stroke-width="2"/>
        </g>
        <title>XF1 In</title>
      </g>
    </g>
    <g id="LEDs">
      <rect id="LED_LA XF2 Out" data-name="LA XF2 Out" width="8" height="2" fill="#b6bec6" x="13.001000000000001" y="48">
        <title>LA XF2 Out</title>
      </rect>
      <rect id="LED_LA XF1 In" data-name="LA XF1 In" width="8" height="2" fill="#b6bec6" x="13.001000000000001" y="45">
        <title>LA XF1 In</title>
      </rect>
      <rect id="LED_ER-NS-NF" width="8" height="2" fill="#b6bec6" data-name="ER-NS-NF" x="13.001000000000001" y="42">
        <title>ER-NS-NF</title>
      </rect>
      <rect id="LED_RN-MS-SF" width="8" height="2" fill="#b6bec6" data-name="RN-MS-SF" x="13.001000000000001" y="39">
        <title>RN-MS-SF</title>
      </rect>
      <rect id="LED_SD" width="8" height="2" fill="#b6bec6" data-name="SD" x="13.001000000000001" y="32">
        <title>SD</title>
      </rect>
      <rect id="LED_MT" width="8" height="2" fill="#b6bec6" data-name="MT" x="13.001000000000001" y="29">
        <title>MT</title>
      </rect>
      <rect id="LED_PL" width="8" height="2" fill="#b6bec6" data-name="PL" x="13.001000000000001" y="26">
        <title>PL</title>
      </rect>
      <rect id="LED_MD" width="8" height="2" fill="#b6bec6" data-name="MD" x="13.001000000000001" y="23">
        <title>MD</title>
      </rect>
    </g>
  </g>
</svg>
