<svg xmlns="http://www.w3.org/2000/svg" width="43" height="109" viewBox="0 0 43 109">
  <g id="VABX-A-BV-S-AAAA">
    <rect id="Body" width="43" height="107" fill="#b6bec6"/>
    <g id="VTUX_Valves_Size_10" data-name="VTUX Valves Size 10">
      <g id="Valves">
        <g id="Valves-2" data-name="Valves">
          <g id="Valve">
            <rect id="Fitting" width="8" height="2" fill="#b6bec6" x="1" y="107"/>
            <rect id="Bottom" width="10" height="73" fill="#e5e8eb" y="34"/>
            <rect id="Top" width="10" height="32" fill="#b6bec6" y="2"/>
            <circle id="Screw" cx="5.0" cy="104.0" r="2" fill="#b6bec6"/>
            <line id="Line" x2="9" transform="translate(1917.5 164.471)" fill="none" stroke="#b6bec6" stroke-linecap="square" stroke-width="1"/>
            <circle id="Screw-2" data-name="Screw" cx="5.0" cy="37.0" r="2" fill="#b6bec6"/>
            <g id="Manual_Override" data-name="Manual Override" fill="none" stroke="#f2f3f5" stroke-width="1">
              <circle cx="4.9990000000000006" cy="25.491000000000003" r="2.499" stroke="none"/>
              <circle cx="4.9990000000000006" cy="25.491000000000003" r="1.999" fill="none"/>
            </g>
            <g id="Manual_Override-2" data-name="Manual Override" fill="none" stroke="#f2f3f5" stroke-width="1">
              <circle cx="4.9990000000000006" cy="10.496" r="2.499" stroke="none"/>
              <circle cx="4.9990000000000006" cy="10.496" r="1.999" fill="none"/>
            </g>
            <rect id="LED3" width="3" height="2" fill="#f2f3f5" x="7"/>
            <rect id="LED2" width="2" height="2" fill="#f2f3f5" x="4"/>
            <rect id="LED1" width="3" height="2" fill="#f2f3f5"/>
          </g>
        </g>
        <g id="Valves-3" data-name="Valves">
          <g id="Valve-2" data-name="Valve">
            <rect id="Fitting-2" data-name="Fitting" width="8" height="2" fill="#b6bec6" x="12" y="107"/>
            <rect id="Bottom-2" data-name="Bottom" width="10" height="73" fill="#e5e8eb" x="11" y="34"/>
            <rect id="Top-2" data-name="Top" width="10" height="32" fill="#b6bec6" x="11" y="2"/>
            <circle id="Screw-3" data-name="Screw" cx="16.0" cy="104.0" r="2" fill="#b6bec6"/>
            <line id="Line-2" data-name="Line" x2="9" transform="translate(1917.5 164.471)" fill="none" stroke="#b6bec6" stroke-linecap="square" stroke-width="1"/>
            <circle id="Screw-4" data-name="Screw" cx="16.0" cy="37.0" r="2" fill="#b6bec6"/>
            <g id="Manual_Override-3" data-name="Manual Override" fill="none" stroke="#f2f3f5" stroke-width="1">
              <circle cx="15.999" cy="25.491000000000003" r="2.499" stroke="none"/>
              <circle cx="15.999" cy="25.491000000000003" r="1.999" fill="none"/>
            </g>
            <g id="Manual_Override-4" data-name="Manual Override" fill="none" stroke="#f2f3f5" stroke-width="1">
              <circle cx="15.999" cy="10.496" r="2.499" stroke="none"/>
              <circle cx="15.999" cy="10.496" r="1.999" fill="none"/>
            </g>
            <rect id="LED3-2" data-name="LED3" width="3" height="2" fill="#f2f3f5" x="18"/>
            <rect id="LED2-2" data-name="LED2" width="2" height="2" fill="#f2f3f5" x="15"/>
            <rect id="LED1-2" data-name="LED1" width="3" height="2" fill="#f2f3f5" x="11"/>
          </g>
        </g>
        <g id="Valves-4" data-name="Valves">
          <g id="Valve-3" data-name="Valve">
            <rect id="Fitting-3" data-name="Fitting" width="8" height="2" fill="#b6bec6" x="23" y="107"/>
            <rect id="Bottom-3" data-name="Bottom" width="10" height="73" fill="#e5e8eb" x="22" y="34"/>
            <rect id="Top-3" data-name="Top" width="10" height="32" fill="#b6bec6" x="22" y="2"/>
            <circle id="Screw-5" data-name="Screw" cx="27.0" cy="104.0" r="2" fill="#b6bec6"/>
            <line id="Line-3" data-name="Line" x2="9" transform="translate(1917.5 164.471)" fill="none" stroke="#b6bec6" stroke-linecap="square" stroke-width="1"/>
            <circle id="Screw-6" data-name="Screw" cx="27.0" cy="37.0" r="2" fill="#b6bec6"/>
            <g id="Manual_Override-5" data-name="Manual Override" fill="none" stroke="#f2f3f5" stroke-width="1">
              <circle cx="26.999" cy="25.491000000000003" r="2.499" stroke="none"/>
              <circle cx="26.999" cy="25.491000000000003" r="1.999" fill="none"/>
            </g>
            <g id="Manual_Override-6" data-name="Manual Override" fill="none" stroke="#f2f3f5" stroke-width="1">
              <circle cx="26.999" cy="10.496" r="2.499" stroke="none"/>
              <circle cx="26.999" cy="10.496" r="1.999" fill="none"/>
            </g>
            <rect id="LED3-3" data-name="LED3" width="3" height="2" fill="#f2f3f5" x="29"/>
            <rect id="LED2-3" data-name="LED2" width="2" height="2" fill="#f2f3f5" x="26"/>
            <rect id="LED1-3" data-name="LED1" width="3" height="2" fill="#f2f3f5" x="22"/>
          </g>
        </g>
        <g id="Valves-5" data-name="Valves">
          <g id="Valve-4" data-name="Valve">
            <rect id="Fitting-4" data-name="Fitting" width="8" height="2" fill="#b6bec6" x="34" y="107"/>
            <rect id="Bottom-4" data-name="Bottom" width="10" height="73" fill="#e5e8eb" x="33" y="34"/>
            <rect id="Top-4" data-name="Top" width="10" height="32" fill="#b6bec6" x="33" y="2"/>
            <circle id="Screw-7" data-name="Screw" cx="38.0" cy="104.0" r="2" fill="#b6bec6"/>
            <line id="Line-4" data-name="Line" x2="9" transform="translate(1917.5 164.471)" fill="none" stroke="#b6bec6" stroke-linecap="square" stroke-width="1"/>
            <circle id="Screw-8" data-name="Screw" cx="38.0" cy="37.0" r="2" fill="#b6bec6"/>
            <g id="Manual_Override-7" data-name="Manual Override" fill="none" stroke="#f2f3f5" stroke-width="1">
              <circle cx="37.999" cy="25.491000000000003" r="2.499" stroke="none"/>
              <circle cx="37.999" cy="25.491000000000003" r="1.999" fill="none"/>
            </g>
            <g id="Manual_Override-8" data-name="Manual Override" fill="none" stroke="#f2f3f5" stroke-width="1">
              <circle cx="37.999" cy="10.496" r="2.499" stroke="none"/>
              <circle cx="37.999" cy="10.496" r="1.999" fill="none"/>
            </g>
            <rect id="LED3-4" data-name="LED3" width="3" height="2" fill="#f2f3f5" x="40"/>
            <rect id="LED2-4" data-name="LED2" width="2" height="2" fill="#f2f3f5" x="37"/>
            <rect id="LED1-4" data-name="LED1" width="3" height="2" fill="#f2f3f5" x="33"/>
          </g>
        </g>
      </g>
    </g>
  </g>
</svg>
