<svg xmlns="http://www.w3.org/2000/svg" width="46" height="109" viewBox="0 0 46 109">
  <g id="VABX-A-EL-API-S">
    <g id="VTUX_AP-I_Interface" data-name="VTUX AP-I Interface">
      <rect id="Body" width="46" height="107" fill="#b6bec6"/>
      <g id="Pneumatic_Supply" data-name="Pneumatic Supply">
        <rect id="Fitting" width="18" height="2" fill="#b6bec6" x="26" y="107"/>
        <rect id="Cover" width="22" height="107" fill="#e5e8eb" x="24"/>
        <path id="Hockeystick_2" data-name="Hockeystick 2" d="M27,0s.041,59.736,0,59.8a16.662,16.662,0,0,0,.324,4.068,9.722,9.722,0,0,0,1.83,3.969C29.142,67.9,41.8,87.5,41.8,87.5" transform="translate(4 0)" fill="none" stroke="#b6bec6" stroke-width="1"/>
        <path id="Hockeystick_1" data-name="Hockeystick 1" d="M27,0s.052,72.632,0,72.7a19.422,19.422,0,0,0,.412,4.946c.257.987.292,1.839,2.324,4.826-.015.087,16.064,23.915,16.064,23.915" fill="none" stroke="#b6bec6" stroke-width="1" transform="translate(0 0)"/>
      </g>
      <g id="Auxiliary_Interfaces" data-name="Auxiliary Interfaces">
        <circle id="XD2" cx="12.0" cy="85.5" r="4" fill="#d8dce1">
          <title>XD2</title>
        </circle>
        <circle id="XD1" cx="12.0" cy="64.5" r="4" fill="#d8dce1">
          <title>XD1</title>
        </circle>
      </g>
      <g id="Connectors">
        <g id="XF20">
          <g id="Right">
            <circle id="M8" cx="12.0" cy="44.5" r="4" fill="#0091dc" stroke="#0091dc" stroke-width="2"/>
          </g>
          <title>XF20</title>
        </g>
        <g id="XF10">
          <g id="Left">
            <circle id="M8-2" data-name="M8" cx="12.0" cy="23.5" r="4" fill="#0091dc" stroke="#0091dc" stroke-width="2"/>
          </g>
          <title>XF10</title>
        </g>
      </g>
      <g id="LEDs">
        <rect id="LED_MD" width="8" height="2" fill="#e5e8eb" data-name="MD" x="4" y="54">
          <title>MD</title>
        </rect>
      </g>
    </g>
  </g>
</svg>
