<svg xmlns="http://www.w3.org/2000/svg" width="164.985" height="44" viewBox="0 0 164.985 44">
  <g id="VESC">
    <rect id="Body" width="44" height="164.985" fill="#e5e8eb" x="660.985" y="-400"/>
    <circle id="Screw" cx="687.5240000000001" cy="-291.925" r="10.46" fill="#b6bec6"/>
    <circle id="Screw-2" data-name="Screw" cx="700.985" cy="-238.83700000000002" r="2.533" fill="#b6bec6"/>
    <circle id="Screw-3" data-name="Screw" cx="692.578" cy="-247.423" r="6.054" fill="#b6bec6"/>
    <circle id="Screw-4" data-name="Screw" cx="695.624" cy="-274.965" r="8.36" fill="#b6bec6"/>
    <circle id="Screw-5" data-name="Screw" cx="669.9849999999999" cy="-283.19800000000004" r="8.233" fill="#b6bec6"/>
    <g id="Path_4" data-name="Path 4" fill="#fff" stroke-linejoin="round">
      <path d="M 39.19474029541016 98.5 L 36.27753067016602 98.5 C 36.24081420898438 98.48443603515625 36.19483947753906 98.46515655517578 36.1363410949707 98.44063568115234 C 35.86711883544922 98.32776641845703 35.05043792724609 97.98536682128906 34.86633682250977 97.86336517333984 C 32.30771636962891 96.07994079589844 28.13522911071777 94.97812652587891 25.3383674621582 94.57636260986328 C 24.22462844848633 94.4144287109375 23.061279296875 94.33226013183594 21.88147926330566 94.33226013183594 C 20.69032859802246 94.33226013183594 19.52871704101562 94.41974639892578 18.61061668395996 94.57861328125 C 13.6138916015625 95.44322204589844 8.104854583740234 97.13414001464844 8.049792289733887 97.15111541748047 L 7.960841655731201 97.17853546142578 L 7.887729167938232 97.23613739013672 L 7.09616756439209 97.85968017578125 L 5.958858966827393 98.5 L 3.094316959381104 98.5 C 1.663804292678833 98.5 0.5000043511390686 97.37850189208984 0.5000043511390686 96 L 0.5000043511390686 0.5 L 41.78905487060547 0.5 L 41.78905487060547 25.19459915161133 L 41.78905487060547 96 C 41.78905487060547 97.37850189208984 40.6252555847168 98.5 39.19474029541016 98.5 Z" stroke="none" transform="translate(661.985 -397.5)"/>
      <path d="M 0.9999961853027344 1 L 0.9999961853027344 96 C 0.9999961853027344 97.10279846191406 1.939502716064453 98 3.094314575195312 98 L 5.827770233154297 98 L 6.817165374755859 97.44294738769531 L 7.578330993652344 96.84336090087891 C 7.674995422363281 96.7672119140625 7.784877777099609 96.70955657958984 7.902462005615234 96.67330932617188 C 8.128543853759766 96.60359954833984 13.49712944030762 94.95598602294922 18.52534294128418 94.08592987060547 C 19.47068977355957 93.92234802246094 20.66256904602051 93.83225250244141 21.88143539428711 93.83225250244141 C 23.08519554138184 93.83225250244141 24.27276992797852 93.91617584228516 25.40946197509766 94.08145141601562 C 28.25686645507812 94.49046325683594 32.51103210449219 95.61688995361328 35.14237976074219 97.4462890625 C 35.26507568359375 97.52125549316406 35.6644172668457 97.70060729980469 36.32970428466797 97.97953033447266 C 36.34683227539062 97.98671722412109 36.36307525634766 97.99352264404297 36.37850570678711 98 L 39.19474411010742 98 C 40.34955596923828 98 41.2890625 97.10279846191406 41.2890625 96 L 41.2890625 1 L 0.9999961853027344 1 M -3.814697265625e-06 0 L 42.2890625 0 C 42.2890625 0 42.2890625 1.194602966308594 42.2890625 25.19460296630859 C 42.2890625 49.19459915161133 42.2890625 96 42.2890625 96 C 42.2890625 97.65685272216797 40.9036750793457 99 39.19474411010742 99 L 36.17192840576172 99 C 36.14171600341797 98.97842407226562 34.87971496582031 98.47517395019531 34.58447647094727 98.27635955810547 C 32.29732894897461 96.68039703369141 28.39332962036133 95.52033233642578 25.26727676391602 95.07129669189453 C 22.72534561157227 94.70169067382812 20.21825218200684 94.80785369873047 18.69586181640625 95.07129669189453 C 13.67284965515137 95.94043731689453 8.197128295898438 97.62890625 8.197128295898438 97.62890625 L 7.375194549560547 98.27635955810547 L 6.089927673339844 99 L 3.094314575195312 99 C 1.385368347167969 99 -3.814697265625e-06 97.65685272216797 -3.814697265625e-06 96 L -3.814697265625e-06 0 Z" stroke="none" fill="#707070" transform="translate(661.985 -397.5)"/>
    </g>
    <g id="Connectors">
      <g id="XF20">
        <g id="Right">
          <circle id="M8" cx="673.985" cy="-333.783" r="4" fill="#0091dc" stroke="#0091dc" stroke-width="2"/>
        </g>
        <title>XF20</title>
      </g>
      <g id="XF10">
        <g id="Left">
          <circle id="M8-2" data-name="M8" cx="692.985" cy="-333.783" r="4" fill="#0091dc" stroke="#0091dc" stroke-width="2"/>
        </g>
        <title>XF10</title>
      </g>
    </g>
    <g id="Auxiliary_Interfaces" data-name="Auxiliary Interfaces">
      <rect id="Right-2" data-name="Right" width="3" height="31" fill="#b6bec6" x="1318.635" y="690.6519999999999">
        <title>Right</title>
      </rect>
      <rect id="Left-2" data-name="Left" width="3" height="31" fill="#b6bec6" x="1313.635" y="690.6519999999999">
        <title>Left</title>
      </rect>
    </g>
    <g id="VESC_Body" data-name="VESC Body">
      <path id="Silencer" d="M15.5,0A15.5,15.5,0,1,1,0,15.5,15.5,15.5,0,0,1,15.5,0Z" transform="translate(729.8870000000001 -109.46699999999998) rotate(90)" fill="#b6bec6"/>
      <g id="Festo_Logo" data-name="Festo Logo">
        <path id="F" d="M.091,2.814A.093.093,0,0,1,0,2.72V.094A.093.093,0,0,1,.091,0h2.54a.093.093,0,0,1,.091.094V.469a.092.092,0,0,1-.091.094H.817A.092.092,0,0,0,.726.657v.375a.093.093,0,0,0,.091.094H2.45a.092.092,0,0,1,.091.094V1.6a.092.092,0,0,1-.09.093H.817a.093.093,0,0,0-.091.094V2.72a.093.093,0,0,1-.091.094Z" transform="translate(761.2180000000001 -104.87799999999999)" fill="#0091dc"/>
        <path id="E" d="M0,.094A.093.093,0,0,1,.091,0H2.813A.093.093,0,0,1,2.9.094V.469a.093.093,0,0,1-.091.094h-2A.092.092,0,0,0,.726.657v.375a.092.092,0,0,0,.091.094H2.631a.092.092,0,0,1,.091.094V1.6a.092.092,0,0,1-.091.093H.817a.093.093,0,0,0-.091.094v.375a.093.093,0,0,0,.091.094h2a.092.092,0,0,1,.091.094V2.72a.093.093,0,0,1-.091.094H.091A.093.093,0,0,1,0,2.72Z" transform="translate(764.1210000000001 -104.87799999999999)" fill="#0091dc"/>
        <path id="S" d="M0,1.126a.553.553,0,0,0,.544.562H2a.185.185,0,0,1,.182.188v.187A.184.184,0,0,1,2,2.252H.816a.093.093,0,0,1-.091-.094.092.092,0,0,0-.09-.094H.09A.092.092,0,0,0,0,2.157v.094a.554.554,0,0,0,.544.563H2.359A.554.554,0,0,0,2.9,2.252V1.688a.553.553,0,0,0-.544-.562H.907A.185.185,0,0,1,.726.938V.751A.184.184,0,0,1,.907.563H2.086a.092.092,0,0,1,.091.094.092.092,0,0,0,.09.094h.545A.092.092,0,0,0,2.9.657V.563A.554.554,0,0,0,2.359,0H.544A.554.554,0,0,0,0,.563Z" transform="translate(767.2060000000001 -104.87799999999999)" fill="#0091dc"/>
        <path id="T" d="M0,.094A.093.093,0,0,1,.092,0H2.812A.093.093,0,0,1,2.9.094V.469a.093.093,0,0,1-.091.094H1.906a.092.092,0,0,0-.09.094V2.72a.093.093,0,0,1-.091.094H1.18a.093.093,0,0,1-.091-.094V.657A.092.092,0,0,0,1,.563H.091A.093.093,0,0,1,0,.469V.094Z" transform="translate(770.2900000000001 -104.87799999999999)" fill="#0091dc"/>
        <path id="O" d="M2.322,2.822H.535a.508.508,0,0,1-.208-.044.533.533,0,0,1-.17-.121.565.565,0,0,1-.115-.179A.587.587,0,0,1,0,2.258V.565A.587.587,0,0,1,.042.345.566.566,0,0,1,.157.165.534.534,0,0,1,.327.044.507.507,0,0,1,.535,0H2.322a.509.509,0,0,1,.209.044A.532.532,0,0,1,2.7.165a.565.565,0,0,1,.115.18.589.589,0,0,1,.042.22V2.258a.588.588,0,0,1-.042.22.565.565,0,0,1-.115.179.532.532,0,0,1-.17.121A.509.509,0,0,1,2.322,2.822ZM.893.565A.173.173,0,0,0,.766.62.192.192,0,0,0,.714.753V2.069A.193.193,0,0,0,.766,2.2a.173.173,0,0,0,.127.055H1.965A.173.173,0,0,0,2.091,2.2a.193.193,0,0,0,.052-.133V.753A.192.192,0,0,0,2.091.62.173.173,0,0,0,1.965.565Z" transform="translate(773.4200000000001 -104.87799999999999)" fill="#0091dc"/>
      </g>
      <circle id="Screw-6" data-name="Screw" cx="760.969" cy="-103.46699999999998" r="2.533" fill="#b6bec6"/>
      <circle id="Screw-7" data-name="Screw" cx="760.969" cy="-70.46699999999998" r="2.533" fill="#b6bec6"/>
    </g>
    <g id="LEDs">
      <circle id="LED_DO 2" data-name="DO 2" cx="745.067" cy="-205.508" r="1" fill="#b6bec6">
        <title>DO 2</title>
      </circle>
      <circle id="LED_DO 0" data-name="DO 0" cx="745.067" cy="-203.508" r="1" fill="#b6bec6">
        <title>DO 0</title>
      </circle>
      <circle id="LED_DO 1" data-name="DO 1" cx="756.887" cy="-203.508" r="1" fill="#b6bec6">
        <title>DO 1</title>
      </circle>
      <circle id="LED_X1" cx="745.067" cy="-194.508" r="1" fill="#b6bec6" data-name="X1">
        <title>X1</title>
      </circle>
      <circle id="LED_ACK" cx="756.887" cy="-194.508" r="1" fill="#b6bec6" data-name="ACK">
        <title>ACK</title>
      </circle>
      <circle id="LED_X0" cx="745.067" cy="-192.508" r="1" fill="#b6bec6" data-name="X0">
        <title>X0</title>
      </circle>
      <circle id="LED_EN" cx="756.887" cy="-192.508" r="1" fill="#b6bec6" data-name="EN">
        <title>EN</title>
      </circle>
      <circle id="LED_CLOSE" cx="745.067" cy="-180.508" r="1" fill="#b6bec6" data-name="CLOSE">
        <title>CLOSE</title>
      </circle>
      <circle id="LED_OPEN" cx="756.887" cy="-180.508" r="1" fill="#b6bec6" data-name="OPEN">
        <title>OPEN</title>
      </circle>
    </g>
  </g>
</svg>
