<svg xmlns="http://www.w3.org/2000/svg" width="40" height="107" viewBox="0 0 40 107">
  <g id="VPPM-8TA">
    <g id="Body">
      <rect id="Middle" width="40" height="105" fill="#e5e8eb"/>
      <g id="Festo_Logo" data-name="Festo Logo">
        <path id="F" d="M.072,2.243A.074.074,0,0,1,0,2.167V.075A.074.074,0,0,1,.072,0H2.1a.074.074,0,0,1,.072.075v.3A.074.074,0,0,1,2.1.449H.651A.074.074,0,0,0,.578.524v.3A.074.074,0,0,0,.651.9h1.3a.074.074,0,0,1,.072.075v.3a.073.073,0,0,1-.072.074H.651a.074.074,0,0,0-.072.075v.747a.074.074,0,0,1-.072.075Z" transform="translate(25.972999999999956 6.3359999999999985)" fill="#0091dc"/>
        <path id="E" d="M0,.075A.074.074,0,0,1,.072,0H2.241a.074.074,0,0,1,.072.075v.3a.074.074,0,0,1-.072.075H.651A.073.073,0,0,0,.578.524v.3A.074.074,0,0,0,.651.9H2.1a.074.074,0,0,1,.072.075v.3a.073.073,0,0,1-.072.074H.651a.074.074,0,0,0-.072.075v.3a.074.074,0,0,0,.072.075h1.59a.074.074,0,0,1,.072.075v.3a.074.074,0,0,1-.072.075H.072A.074.074,0,0,1,0,2.168Z" transform="translate(28.285999999999955 6.3359999999999985)" fill="#0091dc"/>
        <path id="S" d="M0,.9a.441.441,0,0,0,.434.448H1.59a.147.147,0,0,1,.145.15v.149a.147.147,0,0,1-.145.15H.65a.074.074,0,0,1-.072-.075.074.074,0,0,0-.072-.075H.072A.074.074,0,0,0,0,1.719v.075a.441.441,0,0,0,.434.448H1.88a.441.441,0,0,0,.433-.448V1.345A.441.441,0,0,0,1.88.9H.723A.147.147,0,0,1,.578.748V.6A.147.147,0,0,1,.723.449h.939a.073.073,0,0,1,.073.075A.073.073,0,0,0,1.807.6h.434A.074.074,0,0,0,2.313.523V.449A.442.442,0,0,0,1.88,0H.434A.441.441,0,0,0,0,.449Z" transform="translate(30.743999999999957 6.3359999999999985)" fill="#0091dc"/>
        <path id="T" d="M0,.075A.074.074,0,0,1,.073,0H2.241a.074.074,0,0,1,.073.075v.3a.074.074,0,0,1-.073.075H1.518a.073.073,0,0,0-.072.075V2.168a.074.074,0,0,1-.073.075H.94a.074.074,0,0,1-.073-.075V.524A.073.073,0,0,0,.8.449H.073A.074.074,0,0,1,0,.374v-.3Z" transform="translate(33.201999999999956 6.3359999999999985)" fill="#0091dc"/>
        <path id="O" d="M1.85,2.249H.427a.4.4,0,0,1-.166-.035.425.425,0,0,1-.136-.1.45.45,0,0,1-.092-.143A.468.468,0,0,1,0,1.8V.45A.468.468,0,0,1,.034.275.451.451,0,0,1,.125.132a.425.425,0,0,1,.136-.1A.4.4,0,0,1,.427,0H1.85a.405.405,0,0,1,.166.035.424.424,0,0,1,.136.1.45.45,0,0,1,.091.143A.469.469,0,0,1,2.277.45V1.8a.469.469,0,0,1-.033.175.45.45,0,0,1-.091.143.424.424,0,0,1-.136.1A.406.406,0,0,1,1.85,2.249ZM.712.45a.138.138,0,0,0-.1.044A.153.153,0,0,0,.569.6V1.649a.153.153,0,0,0,.042.106.138.138,0,0,0,.1.044h.854a.138.138,0,0,0,.1-.044.153.153,0,0,0,.042-.106V.6A.153.153,0,0,0,1.666.494a.138.138,0,0,0-.1-.044Z" transform="translate(35.695999999999955 6.3359999999999985)" fill="#0091dc"/>
      </g>
    </g>
    <circle id="LED" cx="21.0" cy="22.0" r="2" fill="#b6bec6"/>
    <circle id="Screw" cx="35.0" cy="84.0" r="4" fill="#b6bec6"/>
    <circle id="Screw-2" data-name="Screw" cx="5.0" cy="56.0" r="4" fill="#b6bec6"/>
    <rect id="Display" width="24" height="22" fill="#b6bec6" x="8" y="18"/>
    <rect id="Rechteck_4828" data-name="Rechteck 4828" width="9" height="9" fill="#b6bec6" x="8" y="63"/>
    <rect id="Rechteck_4829" data-name="Rechteck 4829" width="9" height="9" fill="#b6bec6" x="23" y="63"/>
    <circle id="Ellipse_794" data-name="Ellipse 794" cx="20.0" cy="80.0" r="2" fill="#b6bec6"/>
    <circle id="Ellipse_795" data-name="Ellipse 795" cx="20.0" cy="55.0" r="2" fill="#b6bec6"/>
  </g>
</svg>
